# Blender 5.0.0
# www.blender.org
mtllib big_tornado.mtl
o BézierCurve.001
v -15.115443 48.739182 -11.560390
v -8.726918 48.739178 -17.948925
v -0.000027 48.739170 -20.287304
v 8.726871 48.739170 -17.948952
v 15.115410 48.739170 -11.560429
v 17.453789 48.739170 -2.833539
v 15.115439 48.739174 5.893360
v 8.726920 48.739178 12.281900
v 0.000028 48.739185 14.620282
v -8.726872 48.739185 12.281934
v -15.115415 48.739185 5.893413
v -17.453796 48.739185 -2.833479
v -15.769235 48.187828 1.207107
v -15.679559 48.182934 -7.209294
v -11.399951 47.949429 -14.453208
v -4.077123 47.549877 -18.583633
v 4.326778 47.091347 -18.493830
v 11.559936 46.696693 -14.207856
v 15.684228 46.471664 -6.874136
v 15.594560 46.476559 1.542263
v 11.314953 46.710064 8.786182
v 3.992126 47.109615 12.916611
v -4.411777 47.568146 12.826810
v -11.644936 47.962799 8.540836
v -7.922100 46.754562 10.050736
v -13.297417 47.223976 4.419552
v -15.147661 47.385551 -3.155083
v -12.977063 47.195995 -10.643553
v -7.367229 46.706100 -16.039330
v 0.178686 46.047134 -17.896618
v 7.638763 45.395660 -15.717759
v 13.014084 44.926247 -10.086582
v 14.864334 44.764671 -2.511945
v 12.693740 44.954227 4.976528
v 7.083907 45.444122 10.372306
v -0.462009 46.103088 12.229596
v 2.893959 44.628082 10.674749
v -4.258793 45.223183 10.444901
v -10.338731 45.729023 6.657115
v -13.716739 46.010067 0.326324
v -13.487684 45.991013 -6.851142
v -9.712940 45.676960 -12.952087
v -3.403949 45.152061 -16.341766
v 3.748803 44.556965 -16.111923
v 9.828744 44.051121 -12.324140
v 13.206756 43.770077 -5.993351
v 12.977703 43.789131 1.184117
v 9.202961 44.103184 7.285065
v 10.351151 43.253208 3.968950
v 5.520409 43.450310 8.407609
v -0.880621 43.711475 9.834220
v -7.136789 43.966736 7.866525
v -11.571759 44.147690 3.031763
v -12.997188 44.205853 -3.374591
v -11.031128 44.125637 -9.635964
v -6.200389 43.928535 -14.074626
v 0.200642 43.667370 -15.501241
v 6.456812 43.412109 -13.533548
v 10.891784 43.231155 -8.698788
v 12.317214 43.172993 -2.292432
v 10.878540 42.700771 -5.210284
v 10.561571 42.691944 0.726665
v 7.319744 42.601665 5.709669
v 2.021703 42.454121 8.403535
v -3.912945 42.288853 8.086446
v -8.894018 42.150139 4.843362
v -11.586842 42.075153 -0.456730
v -11.269876 42.083981 -6.393680
v -8.028051 42.174259 -11.376686
v -2.730012 42.321804 -14.070554
v 3.204637 42.487072 -13.753468
v 8.185713 42.625786 -10.510385
v 5.419213 41.500057 -11.399124
v 8.918110 41.869770 -7.398655
v 9.959083 41.979763 -2.174959
v 8.263204 41.800568 2.872279
v 4.284883 41.380196 6.390656
v -0.909893 40.831287 7.437425
v -5.929189 40.300922 5.732107
v -9.428087 39.931210 1.731640
v -10.469064 39.821217 -3.492057
v -8.773188 40.000412 -8.539297
v -4.794866 40.420784 -12.057674
v 0.399910 40.969692 -13.104445
v -1.626311 38.548107 -11.765673
v 3.004205 39.335194 -11.419440
v 6.829746 40.070457 -8.772615
v 8.825262 40.556892 -4.534414
v 8.456055 40.664158 0.159544
v 5.821055 40.363510 4.051514
v 1.626307 39.735508 6.098650
v -3.004208 38.948425 5.752421
v -6.829751 38.213158 3.105597
v -8.825269 37.726723 -1.132603
v -8.456063 37.619457 -5.826562
v -5.821064 37.920105 -9.718534
v -7.140567 35.762566 -6.074538
v -4.399151 35.870453 -9.420211
v -0.400192 36.439751 -10.970938
v 3.784792 37.317921 -10.311202
v 7.034440 38.269650 -7.617781
v 8.478011 39.039932 -3.612373
v 7.728701 39.422363 0.631777
v 4.987288 39.314476 3.977452
v 0.988329 38.745178 5.528180
v -3.196656 37.867012 4.868447
v -6.446306 36.915279 2.175026
v -7.889877 36.144997 -1.830383
v -5.932551 35.558659 1.455389
v -6.894135 34.631649 -2.255313
v -5.845462 34.056942 -6.013411
v -3.067524 33.988529 -8.811926
v 0.695333 34.444744 -9.900997
v 4.434855 35.303341 -8.988811
v 7.149040 36.334263 -6.319784
v 8.110626 37.261269 -2.609082
v 7.061957 37.835979 1.149016
v 4.284019 37.904392 3.947533
v 0.521162 37.448177 5.036605
v -3.218361 36.589581 4.124419
v 0.223272 35.727158 4.644063
v -3.074152 34.974861 3.530314
v -5.307246 34.023903 0.924869
v -5.877655 33.129089 -2.474150
v -4.632539 32.530186 -5.755977
v -1.905525 32.387669 -8.041248
v 1.572686 32.739723 -8.717628
v 4.870110 33.492020 -7.603883
v 7.103206 34.442978 -4.998438
v 7.673617 35.337791 -1.599418
v 6.428502 35.936695 1.682409
v 3.701488 36.079212 3.967682
v 5.775778 33.806656 2.168824
v 3.171179 33.989998 3.980241
v 0.016625 33.769554 4.294843
v -2.842625 33.204388 3.028328
v -4.640439 32.445938 0.520061
v -4.895092 31.697430 -2.557871
v -3.538350 31.159424 -5.380740
v -0.933753 30.976082 -7.192160
v 2.220801 31.196526 -7.506763
v 5.080053 31.761692 -6.240250
v 6.877867 32.520142 -3.731982
v 7.132521 33.268650 -0.654049
v 6.440315 30.534494 -2.598503
v 6.440982 31.070892 0.144446
v 5.044272 31.514582 2.524324
v 2.624430 31.746677 3.903447
v -0.170148 31.704990 3.912281
v -2.590658 31.400692 2.548457
v -3.988526 30.915316 0.177411
v -3.989196 30.378920 -2.565536
v -2.592486 29.935230 -4.945416
v -0.172645 29.703133 -6.324541
v 2.621933 29.744820 -6.333375
v 5.042444 30.049118 -4.969552
v 2.752142 28.341429 -5.257812
v 4.723255 28.326103 -3.867857
v 5.743606 28.488312 -1.688391
v 5.539793 28.784594 0.696598
v 4.166428 29.135559 2.648056
v 1.991502 29.447166 3.643091
v -0.402215 29.635923 3.415084
v -2.373329 29.651249 2.025130
v -3.393681 29.489040 -0.154335
v -3.189869 29.192759 -2.539325
v -1.816504 28.841793 -4.490784
v 0.358422 28.530186 -5.485819
v -1.272923 27.598619 -4.043807
v 0.596757 27.183331 -4.713620
v 2.553415 26.800373 -4.337256
v 4.072767 26.552362 -3.015562
v 4.747704 26.505753 -1.102683
v 4.397377 26.673031 0.888825
v 3.115656 27.009377 2.425341
v 1.245977 27.424667 3.095155
v -0.710682 27.807623 2.718792
v -2.230035 28.055634 1.397098
v -2.904972 28.102245 -0.515780
v -2.554646 27.934967 -2.507289
v -2.982943 26.119240 0.572885
v -3.193021 26.087643 -1.342750
v -2.453171 25.796352 -3.098472
v -0.961637 25.323420 -4.223838
v 0.881927 24.795567 -4.417307
v 2.583540 24.354229 -3.627038
v 3.687255 24.117664 -2.064783
v 3.897334 24.149261 -0.149149
v 3.157486 24.440550 1.606575
v 1.665951 24.913483 2.731942
v -0.177613 25.441338 2.925411
v -1.879226 25.882675 2.135142
v 0.108605 22.751833 2.906399
v -1.625064 23.270361 2.663633
v -3.029474 23.621220 1.551003
v -3.728315 23.710400 -0.133361
v -3.534333 23.514002 -1.938137
v -2.499506 23.084652 -3.379735
v -0.901113 22.537395 -4.071882
v 0.832556 22.018867 -3.829116
v 2.236967 21.668007 -2.716488
v 2.935809 21.578827 -1.032123
v 2.741828 21.775225 0.772653
v 1.707000 22.204575 2.214252
v 1.942867 19.060822 -0.011666
v 1.393529 19.375620 1.592024
v 0.142122 19.864122 2.672784
v -1.476040 20.395433 2.941024
v -3.027373 20.827190 2.324869
v -4.096198 21.043703 0.989419
v -4.396124 20.986958 -0.707495
v -3.846788 20.672159 -2.311186
v -2.595381 20.183659 -3.391946
v -0.977219 19.652348 -3.660187
v 0.574114 19.220591 -3.044033
v 1.642940 19.004076 -1.708582
v -1.122544 16.856930 -3.063934
v 0.185537 16.552401 -2.153546
v 0.896823 16.474369 -0.697316
v 0.820724 16.643740 0.914560
v -0.022369 17.015131 2.250181
v -1.406549 17.489029 2.951669
v -2.960927 17.938454 2.831060
v -4.269009 18.242981 1.920673
v -4.980295 18.321014 0.464444
v -4.904197 18.151644 -1.147432
v -4.061105 17.780252 -2.483054
v -2.676924 17.306355 -3.184542
v -5.179551 15.393413 -1.463804
v -4.113419 15.040801 -2.489585
v -2.680444 14.652452 -2.819688
v -1.264591 14.332424 -2.365662
v -0.245235 14.166468 -1.249162
v 0.104487 14.199051 0.230646
v -0.309132 14.421443 1.677248
v -1.375262 14.774055 2.703031
v -2.808237 15.162403 3.033134
v -4.224091 15.482431 2.579108
v -5.243447 15.648388 1.462609
v -5.593170 15.615805 -0.017199
v -5.148976 13.109600 2.191075
v -5.850728 13.156713 0.958292
v -5.852189 13.079978 -0.458937
v -5.152969 12.899957 -1.680867
v -3.940423 12.664886 -2.380082
v -2.539452 12.437752 -2.369230
v -1.325444 12.279415 -1.651217
v -0.623692 12.232303 -0.418434
v -0.622230 12.309037 0.998795
v -1.321449 12.489058 2.220726
v -2.533995 12.724130 2.919942
v -3.934967 12.951263 2.909090
v -2.095612 10.875521 2.505112
v -3.359269 10.896458 2.877995
v -4.640032 10.918435 2.569006
v -5.594721 10.935564 1.660939
v -5.967527 10.943255 0.397109
v -5.658559 10.939446 -0.883842
v -4.750603 10.925159 -1.838683
v -3.486946 10.904222 -2.211566
v -2.206183 10.882245 -1.902579
v -1.251494 10.865116 -0.994512
v -0.878687 10.857425 0.269318
v -1.187655 10.861234 1.550269
v -0.907138 9.278312 1.110080
v -1.633716 9.086321 2.192454
v -2.804244 8.869946 2.757570
v -4.105081 8.687166 2.654005
v -5.187667 8.586956 1.909510
v -5.761927 8.596167 0.723571
v -5.673985 8.712331 -0.586040
v -4.947409 8.904322 -1.668415
v -3.776880 9.120696 -2.233532
v -2.476044 9.303476 -2.129967
v -1.393456 9.403687 -1.385472
v -0.819196 9.394476 -0.199533
v -0.680062 8.302379 -0.736583
v -0.535770 8.135123 0.562461
v -1.038029 7.793536 1.731804
v -2.052259 7.369145 2.458122
v -3.306700 6.975666 2.546799
v -4.465223 6.718531 1.974074
v -5.217404 6.666638 0.893407
v -5.361697 6.833894 -0.405636
v -4.859439 7.175481 -1.574980
v -3.845208 7.599872 -2.301299
v -2.590768 7.993351 -2.389976
v -1.432244 8.250486 -1.817250
v -1.391756 7.224028 -2.262531
v -0.499985 7.388496 -1.306495
v -0.139115 7.251165 -0.046645
v -0.405841 6.848832 1.179444
v -1.228695 6.289301 2.043242
v -2.387192 5.722500 2.313297
v -3.570915 5.300301 1.917245
v -4.462686 5.135832 0.961210
v -4.823557 5.273163 -0.298640
v -4.556830 5.675496 -1.524730
v -3.733978 6.235026 -2.388529
v -2.575480 6.801828 -2.658583
v -2.463972 5.628237 -2.910620
v -1.273534 6.156012 -2.709072
v -0.270271 6.433666 -1.901185
v 0.276993 6.386803 -0.703431
v 0.221619 6.027979 0.563253
v -0.421554 5.453342 1.559461
v -1.480191 4.816864 2.018258
v -2.670629 4.289090 1.816712
v -3.673892 4.011436 1.008825
v -4.221156 4.058298 -0.188930
v -4.165783 4.417121 -1.455614
v -3.522609 4.991759 -2.451822
v -3.336222 3.886840 -2.425318
v -2.345983 4.443888 -3.092726
v -1.130318 4.951643 -3.118264
v -0.014964 5.274055 -2.495090
v 0.701220 5.324733 -1.390182
v 0.826334 5.090098 -0.099600
v 0.326854 4.633020 1.030846
v -0.663385 4.075973 1.698254
v -1.879050 3.568216 1.723793
v -2.994404 3.245804 1.100619
v -3.710589 3.195126 -0.004288
v -3.835704 3.429761 -1.294871
v -3.645087 2.719030 -1.009465
v -3.282806 2.953814 -2.254431
v -2.352487 3.272934 -3.131345
v -1.103407 3.590883 -3.405239
v 0.129743 3.822468 -3.002723
v 1.016542 3.905634 -2.031652
v 1.319374 3.818098 -0.752222
v 0.957094 3.583315 0.492743
v 0.026775 3.264195 1.369658
v -1.222305 2.946245 1.643553
v -2.455455 2.714661 1.241037
v -3.342255 2.631495 0.269966
v -3.052276 1.911298 0.577046
v -3.542560 1.869719 -0.645329
v -3.359690 1.901290 -1.949888
v -2.552664 1.997550 -2.987072
v -1.337725 2.132708 -3.478971
v -0.040415 2.270548 -3.293782
v 0.991654 2.374135 -2.481123
v 1.481939 2.415714 -1.258748
v 1.299069 2.384143 0.045811
v 0.492043 2.287883 1.082996
v -0.722896 2.152725 1.574896
v -2.020206 2.014885 1.389706
v -1.647393 1.036861 1.537830
v -2.747170 0.780297 0.858879
v -3.356205 0.573508 -0.291175
v -3.311308 0.471904 -1.604176
v -2.624510 0.502710 -2.728306
v -1.479836 0.657670 -3.362356
v -0.184002 0.895264 -3.336432
v 0.915776 1.151829 -2.657482
v 1.524812 1.358618 -1.507428
v 1.479916 1.460222 -0.194427
v 0.793118 1.429416 0.929703
v -0.351556 1.274456 1.563754
v 0.165458 0.472286 1.581303
v -1.086321 0.088352 1.729470
v -2.213180 -0.354752 1.209704
v -2.913178 -0.738297 0.161274
v -2.998751 -0.959513 -1.134894
v -2.446970 -0.959125 -2.331492
v -1.405684 -0.737237 -3.107893
v -0.153906 -0.353303 -3.256062
v 0.972954 0.089801 -2.736296
v 1.672952 0.473346 -1.687866
v 1.758526 0.694562 -0.391698
v 1.206745 0.694174 0.804900
v 1.726392 -0.176983 0.718644
v 0.787700 -0.386333 1.619388
v -0.419918 -0.811232 1.931524
v -1.572882 -1.337829 1.571415
v -2.362257 -1.825023 0.635552
v -2.576530 -2.142270 -0.625302
v -2.158287 -2.204564 -1.873301
v -1.219596 -1.995214 -2.774046
v -0.011978 -1.570314 -3.086182
v 1.140987 -1.043717 -2.726073
v 1.930362 -0.556524 -1.790210
v 2.144636 -0.239277 -0.529357
v 2.596972 -1.357978 -0.621940
v 2.318723 -1.235344 0.660187
v 1.479306 -1.383703 1.665014
v 0.303641 -1.763303 2.123299
v -0.893254 -2.272429 1.912246
v -1.790671 -2.774663 1.088405
v -2.148148 -3.135431 -0.127476
v -1.869900 -3.258065 -1.409603
v -1.030483 -3.109706 -2.414431
v 0.145183 -2.730107 -2.872716
v 1.342077 -2.220980 -2.661663
v 2.239494 -1.718746 -1.837822
v 2.508491 -2.994247 -1.870307
v 3.028848 -2.665798 -0.705121
v 2.906056 -2.517504 0.598429
v 2.173016 -2.589100 1.691056
v 1.026144 -2.861401 2.279994
v -0.227255 -3.261446 2.207436
v -1.251334 -3.682041 1.492824
v -1.771694 -4.010490 0.327638
v -1.648902 -4.158784 -0.975911
v -0.915862 -4.087189 -2.068539
v 0.231010 -3.814888 -2.657477
v 1.484409 -3.414843 -2.584919
v 1.486606 -4.601655 -2.533445
v 2.634138 -4.358966 -1.932960
v 3.323483 -4.154862 -0.828671
v 3.369932 -4.044033 0.483529
v 2.761039 -4.056174 1.652038
v 1.659956 -4.188034 2.363753
v 0.361717 -4.404279 2.427973
v -0.785815 -4.646968 1.827489
v -1.475161 -4.851071 0.723199
v -1.521611 -4.961901 -0.589001
v -0.912718 -4.949759 -1.757510
v 0.188365 -4.817900 -2.469226
v -0.000230 -5.882013 -2.321607
v 1.300461 -5.855704 -2.530937
v 2.531034 -5.808856 -2.062104
v 3.361758 -5.754020 -1.040732
v 3.570041 -5.705891 0.259503
v 3.100074 -5.677363 1.490204
v 2.077783 -5.676083 2.321607
v 0.777092 -5.702391 2.530937
v -0.453481 -5.749240 2.062105
v -1.284206 -5.804076 1.040734
v -1.492489 -5.852205 -0.259501
v -1.022522 -5.880733 -1.490203
v -1.440249 -6.944732 -1.112990
v -0.547359 -7.058078 -2.174320
v 0.757236 -7.173941 -2.644565
v 2.123971 -7.261276 -2.397723
v 3.186630 -7.296681 -1.499934
v 3.660475 -7.270671 -0.191760
v 3.418540 -7.190213 1.176273
v 2.525650 -7.076867 2.237605
v 1.221055 -6.961004 2.707850
v -0.145680 -6.873669 2.461008
v -1.208340 -6.838264 1.563219
v -1.682185 -6.864274 0.255046
v -1.838293 -7.866765 0.863485
v -1.863907 -7.982643 -0.597191
v -1.159345 -8.176421 -1.867506
v 0.086607 -8.396174 -2.607081
v 1.540097 -8.583022 -2.617746
v 2.811663 -8.686897 -1.896645
v 3.560591 -8.679967 -0.636995
v 3.586206 -8.564089 0.823681
v 2.881645 -8.370312 2.093997
v 1.635693 -8.150558 2.833572
v 0.182203 -7.963710 2.844238
v -1.089364 -7.859835 2.123137
v -0.914321 -8.945769 2.681963
v -1.932140 -8.901693 1.527919
v -2.248394 -9.002033 0.024712
v -1.778344 -9.219903 -1.424875
v -0.647939 -9.496924 -2.432425
v 0.839930 -9.758869 -2.727968
v 2.286590 -9.935552 -2.232313
v 3.304409 -9.979628 -1.078270
v 3.620664 -9.879288 0.424938
v 3.150615 -9.661419 1.874524
v 2.020210 -9.384398 2.882076
v 0.532340 -9.122452 3.177619
v 0.915096 -10.377279 3.425617
v -0.667348 -10.157137 3.201783
v -1.938222 -10.059219 2.212852
v -2.556997 -10.109764 0.723806
v -2.357872 -10.295227 -0.866366
v -1.394202 -10.565914 -2.131579
v 0.075797 -10.849295 -2.732820
v 1.658242 -11.069437 -2.508988
v 2.929117 -11.167355 -1.520057
v 3.547893 -11.116810 -0.031012
v 3.348768 -10.931347 1.559161
v 2.385098 -10.660661 2.824374
v 2.744786 -11.959901 2.632972
v 1.348101 -11.721831 3.549045
v -0.323947 -11.514132 3.636869
v -1.823334 -11.392458 2.872912
v -2.748300 -11.389409 1.461875
v -2.851002 -11.505803 -0.218154
v -2.103921 -11.710453 -1.717015
v -0.707236 -11.948524 -2.633089
v 0.964812 -12.156222 -2.720914
v 2.464200 -12.277897 -1.956957
v 3.389167 -12.280946 -0.545921
v 3.491869 -12.164552 1.134109
v 3.586947 -13.370718 0.597659
v 3.107818 -13.268446 2.289225
v 1.847515 -13.134507 3.511976
v 0.143737 -13.004789 3.938276
v -1.546993 -12.914052 3.453899
v -2.771643 -12.886606 2.188633
v -3.202071 -12.929808 0.481505
v -2.722943 -13.032080 -1.210061
v -1.462641 -13.166018 -2.432813
v 0.241137 -13.295736 -2.859114
v 1.931867 -13.386474 -2.374737
v 3.156518 -13.413919 -1.109471
v 2.857749 -14.615065 -1.708112
v 3.633250 -14.556084 -0.046100
v 3.473491 -14.509532 1.781322
v 2.421278 -14.487885 3.284501
v 0.758550 -14.496943 4.060658
v -1.069165 -14.534277 3.901825
v -2.572133 -14.589886 2.850560
v -3.347636 -14.648867 1.188549
v -3.187878 -14.695418 -0.638875
v -2.135665 -14.717065 -2.142054
v -0.472938 -14.708008 -2.918212
v 1.354778 -14.670673 -2.759379
v -0.084390 -16.424492 -2.995279
v 1.761561 -16.192722 -2.692416
v 3.203606 -15.958443 -1.501369
v 3.855352 -15.784431 0.258722
v 3.542164 -15.717310 2.116243
v 2.347960 -15.775067 3.573472
v 0.592726 -15.942226 4.239946
v -1.253224 -16.173996 3.937084
v -2.695271 -16.408276 2.746037
v -3.347017 -16.582289 0.985946
v -3.033830 -16.649408 -0.871575
v -1.839626 -16.591650 -2.328805
v -2.680046 -18.577806 -1.023818
v -1.345882 -18.468380 -2.420889
v 0.489418 -18.190929 -2.967213
v 2.334087 -17.819798 -2.516402
v 3.693848 -17.454428 -1.189251
v 4.204354 -17.192722 0.658631
v 3.728816 -17.104803 2.532105
v 2.394653 -17.214230 3.929177
v 0.559353 -17.491680 4.475502
v -1.285317 -17.862812 4.024692
v -2.645079 -18.228182 2.697541
v -3.155586 -18.489887 0.849659
v -2.537131 -19.989079 2.663554
v -2.904903 -20.266256 0.732887
v -2.264500 -20.352993 -1.143792
v -0.787516 -20.226048 -2.463628
v 1.130292 -19.919432 -2.872971
v 2.975049 -19.515305 -2.262139
v 4.252454 -19.121954 -0.794804
v 4.620228 -18.844774 1.135863
v 3.979826 -18.758038 3.012542
v 2.502843 -18.884983 4.332379
v 0.585034 -19.191599 4.741723
v -1.259724 -19.595724 4.130892
v 0.571899 -20.969028 5.003113
v -1.275491 -21.301552 4.217669
v -2.470774 -21.635050 2.605087
v -2.693675 -21.880163 0.597457
v -1.884468 -21.971214 -1.267278
v -0.259979 -21.883804 -2.489464
v 1.744511 -21.641357 -2.741617
v 3.591901 -21.308836 -1.956175
v 4.787184 -20.975338 -0.343593
v 5.010087 -20.730223 1.664037
v 4.200880 -20.639172 3.528772
v 2.576391 -20.726582 4.750958
v 4.269676 -22.728783 4.042898
v 2.500974 -22.690693 5.145782
v 0.418570 -22.754116 5.221134
v -1.419559 -22.902056 4.248763
v -2.520888 -23.094872 2.489216
v -2.590316 -23.280899 0.413962
v -1.609241 -23.410294 -1.420938
v 0.159460 -23.448383 -2.523823
v 2.241865 -23.384960 -2.599176
v 4.079995 -23.237020 -1.626807
v 5.181324 -23.044205 0.132741
v 5.250753 -22.858177 2.207996
v 5.277853 -25.358509 0.591208
v 5.177876 -25.234665 2.719948
v 4.032904 -25.001789 4.506475
v 2.149733 -24.722282 5.472091
v 0.032957 -24.471037 5.358059
v -1.750236 -24.315372 4.194934
v -2.722042 -24.297001 2.294375
v -2.622066 -24.420845 0.165634
v -1.477095 -24.653719 -1.620894
v 0.406075 -24.933228 -2.586510
v 2.522852 -25.184473 -2.472479
v 4.306046 -25.340137 -1.309355
v 2.501245 -26.897776 -2.398455
v 4.170635 -27.344795 -1.062066
v 4.965126 -27.581274 0.959191
v 4.671835 -27.543850 3.123723
v 3.369351 -27.242550 4.851545
v 1.406673 -26.758104 5.679690
v -0.690303 -26.220324 5.386256
v -2.359692 -25.773304 4.049870
v -3.154184 -25.536825 2.028613
v -2.860896 -25.574249 -0.135920
v -1.558412 -25.875549 -1.863743
v 0.404267 -26.359995 -2.691889
v -2.287660 -27.338791 -2.538627
v 0.011836 -27.818066 -3.419759
v 2.398822 -28.477217 -3.017768
v 4.233706 -29.139626 -1.440368
v 5.024836 -29.627798 0.889777
v 4.560225 -29.810930 3.348308
v 2.964369 -29.639954 5.276464
v 0.664874 -29.160679 6.157598
v -1.722113 -28.501528 5.755608
v -3.556999 -27.839121 4.178209
v -4.348129 -27.350946 1.848063
v -3.883519 -27.167814 -0.610469
v -5.438506 -29.376894 1.369438
v -4.777061 -28.900640 -1.343623
v -2.848931 -28.792662 -3.416224
v -0.170759 -29.081888 -4.293018
v 2.539842 -29.690823 -3.739066
v 4.556569 -30.456303 -1.902799
v 5.339042 -31.173216 0.723756
v 4.677599 -31.649469 3.436817
v 2.749471 -31.757448 5.509421
v 0.071298 -31.468222 6.386216
v -2.639303 -30.859287 5.832264
v -4.656032 -30.093809 3.995998
v -3.386348 -33.037834 5.754080
v -5.579953 -32.222572 3.635162
v -6.356719 -31.342510 0.704549
v -5.508512 -30.633459 -2.252502
v -3.262610 -30.285410 -4.443655
v -0.220800 -30.391619 -5.281790
v 2.801869 -30.923632 -4.542331
v 4.995474 -31.738894 -2.423415
v 5.772243 -32.618958 0.507198
v 4.924038 -33.328007 3.464251
v 2.678135 -33.676060 5.655404
v -0.363675 -33.569847 6.493540
v 2.705980 -35.370457 5.830780
v -0.684559 -35.401413 6.618869
v -4.004911 -34.968723 5.667117
v -6.365393 -34.188320 3.230541
v -7.133512 -33.269314 -0.037978
v -6.103456 -32.457954 -3.262644
v -3.551224 -31.971638 -5.579411
v -0.160685 -31.940680 -6.367503
v 3.159669 -32.373371 -5.415751
v 5.520150 -33.153774 -2.979177
v 6.288271 -34.072781 0.289343
v 5.258215 -34.884140 3.514010
v 6.860375 -35.625523 0.124833
v 5.640231 -36.358101 3.653841
v 2.781695 -36.836807 6.119391
v -0.949290 -36.933369 6.860839
v -4.553010 -36.621918 5.679519
v -7.063851 -35.985905 2.891962
v -7.809037 -35.195747 -0.754909
v -6.588895 -34.463165 -4.283918
v -3.730361 -33.984463 -6.749470
v 0.000624 -33.887897 -7.490921
v 3.604346 -34.199348 -6.309601
v 6.115189 -34.835361 -3.522043
v 4.121074 -36.506752 -7.109138
v 6.762507 -36.877769 -3.956977
v 7.463096 -37.352306 0.084672
v 6.035118 -37.803219 3.932852
v 2.861199 -38.109680 6.556448
v -1.208211 -38.189575 7.252470
v -5.082720 -38.021500 5.834418
v -7.724154 -37.650482 2.682259
v -8.424745 -37.175945 -1.359389
v -6.996770 -36.725033 -5.207571
v -3.822851 -36.418571 -7.831168
v 0.246561 -36.338676 -8.527191
v -3.864546 -39.296158 -8.670010
v 0.543325 -39.296158 -9.305079
v 4.678188 -39.296158 -7.651128
v 7.432110 -39.296158 -4.151335
v 8.067181 -39.296158 0.256536
v 6.413232 -39.296158 4.391399
v 2.913440 -39.296158 7.145322
v -1.494431 -39.296158 7.780394
v -5.629296 -39.296158 6.126446
v -8.383221 -39.296158 2.626654
v -9.018291 -39.296158 -1.781218
v -7.364345 -39.296158 -5.916083
vn -0.3789 -0.9132 -0.1499
vn -0.3510 -0.8322 -0.4292
vn -0.1187 -0.7069 -0.6973
vn 0.2772 -0.5960 -0.7536
vn 0.6527 -0.5273 -0.5440
vn 0.8545 -0.4985 -0.1461
vn 0.8088 -0.5039 0.3032
vn 0.5276 -0.5453 0.6513
vn 0.1133 -0.6301 0.7682
vn -0.2494 -0.7538 0.6079
vn -0.3920 -0.8706 0.2972
vn -0.3749 -0.9258 0.0484
vn -0.4623 -0.8791 0.1161
vn -0.4730 -0.8727 -0.1210
vn -0.4187 -0.8135 -0.4036
vn -0.1873 -0.7253 -0.6624
vn 0.1932 -0.6466 -0.7379
vn 0.5699 -0.5966 -0.5651
vn 0.7936 -0.5747 -0.1996
vn 0.7831 -0.5768 0.2325
vn 0.5424 -0.6031 0.5848
vn 0.1603 -0.6589 0.7349
vn -0.2062 -0.7434 0.6363
vn -0.4105 -0.8305 0.3766
vn -0.3854 -0.7391 0.5524
vn -0.5907 -0.7468 0.3054
vn -0.6680 -0.7442 -0.0009
vn -0.6028 -0.7300 -0.3222
vn -0.3786 -0.7138 -0.5893
vn -0.0311 -0.7067 -0.7069
vn 0.3364 -0.7108 -0.6177
vn 0.6036 -0.7199 -0.3426
vn 0.6865 -0.7265 0.0319
vn 0.5637 -0.7279 0.3903
vn 0.2797 -0.7273 0.6268
vn -0.0721 -0.7304 0.6792
vn 0.0772 -0.7702 0.6331
vn -0.2602 -0.6961 0.6691
vn -0.5858 -0.6327 0.5065
vn -0.7827 -0.5960 0.1794
vn -0.7768 -0.5935 -0.2108
vn -0.5659 -0.6249 -0.5378
vn -0.2204 -0.6838 -0.6956
vn 0.1392 -0.7563 -0.6392
vn 0.3943 -0.8224 -0.4100
vn 0.4947 -0.8622 -0.1090
vn 0.4649 -0.8658 0.1854
vn 0.3281 -0.8327 0.4460
vn 0.3311 -0.9070 0.2602
vn 0.2168 -0.8256 0.5210
vn -0.0718 -0.7095 0.7010
vn -0.4509 -0.6038 0.6573
vn -0.7530 -0.5373 0.3799
vn -0.8552 -0.5173 -0.0313
vn -0.7194 -0.5434 -0.4325
vn -0.3949 -0.6130 -0.6844
vn -0.0087 -0.7169 -0.6972
vn 0.2737 -0.8290 -0.4876
vn 0.3669 -0.9083 -0.2010
vn 0.3563 -0.9337 0.0351
vn 0.4183 -0.9044 -0.0843
vn 0.4159 -0.8986 0.1395
vn 0.3701 -0.8306 0.4162
vn 0.1421 -0.7199 0.6794
vn -0.2449 -0.6165 0.7483
vn -0.6216 -0.5502 0.5575
vn -0.8343 -0.5224 0.1761
vn -0.8077 -0.5276 -0.2631
vn -0.5517 -0.5651 -0.6135
vn -0.1585 -0.6388 -0.7529
vn 0.2094 -0.7445 -0.6339
vn 0.3964 -0.8484 -0.3508
vn 0.4408 -0.6629 -0.6052
vn 0.6242 -0.7244 -0.2926
vn 0.6530 -0.7565 0.0344
vn 0.5702 -0.7441 0.3482
vn 0.3499 -0.6979 0.6249
vn -0.0127 -0.6447 0.7643
vn -0.4193 -0.6045 0.6773
vn -0.7244 -0.5812 0.3708
vn -0.8200 -0.5693 -0.0591
vn -0.6739 -0.5654 -0.4756
vn -0.3332 -0.5740 -0.7480
vn 0.0879 -0.6055 -0.7910
vn -0.1396 -0.4950 -0.8576
vn 0.3115 -0.4602 -0.8314
vn 0.6786 -0.4519 -0.5790
vn 0.8583 -0.4788 -0.1844
vn 0.8141 -0.5333 0.2298
vn 0.5806 -0.5980 0.5525
vn 0.2360 -0.6481 0.7241
vn -0.1527 -0.6620 0.7338
vn -0.5239 -0.6445 0.5569
vn -0.7642 -0.6148 0.1950
vn -0.7737 -0.5805 -0.2538
vn -0.5415 -0.5395 -0.6448
vn -0.7367 -0.5814 -0.3453
vn -0.4478 -0.5350 -0.7164
vn -0.0091 -0.4651 -0.8852
vn 0.4519 -0.3877 -0.8034
vn 0.8033 -0.3308 -0.4953
vn 0.9437 -0.3261 -0.0547
vn 0.8422 -0.3860 0.3765
vn 0.5579 -0.4766 0.6794
vn 0.1771 -0.5482 0.8174
vn -0.2378 -0.5867 0.7741
vn -0.5983 -0.6025 0.5282
vn -0.7899 -0.6020 0.1171
vn -0.6639 -0.5422 0.5150
vn -0.7934 -0.6037 0.0784
vn -0.6830 -0.6281 -0.3730
vn -0.3589 -0.6035 -0.7120
vn 0.0894 -0.5320 -0.8420
vn 0.5363 -0.4305 -0.7260
vn 0.8575 -0.3280 -0.3964
vn 0.9646 -0.2582 0.0535
vn 0.8328 -0.2467 0.4956
vn 0.5095 -0.2942 0.8086
vn 0.0864 -0.3745 0.9232
vn -0.3391 -0.4614 0.8198
vn -0.0244 -0.2553 0.9665
vn -0.4464 -0.3740 0.8129
vn -0.7260 -0.5033 0.4686
vn -0.7927 -0.6091 0.0257
vn -0.6307 -0.6643 -0.4012
vn -0.2801 -0.6547 -0.7021
vn 0.1704 -0.5826 -0.7947
vn 0.6008 -0.4664 -0.6493
vn 0.8918 -0.3363 -0.3025
vn 0.9620 -0.2272 0.1511
vn 0.7919 -0.1694 0.5867
vn 0.4294 -0.1798 0.8850
vn 0.7341 -0.1610 0.6597
vn 0.3413 -0.1569 0.9268
vn -0.1259 -0.2238 0.9665
vn -0.5360 -0.3462 0.7700
vn -0.7755 -0.4906 0.3973
vn -0.7874 -0.6149 -0.0440
vn -0.5818 -0.6835 -0.4407
vn -0.2135 -0.6799 -0.7015
vn 0.2343 -0.6077 -0.7588
vn 0.6482 -0.4876 -0.5848
vn 0.9105 -0.3511 -0.2186
vn 0.9429 -0.2322 0.2389
vn 0.9119 -0.3849 -0.1424
vn 0.9062 -0.2772 0.3194
vn 0.6610 -0.2074 0.7212
vn 0.2443 -0.1925 0.9504
vn -0.2278 -0.2410 0.9434
vn -0.6202 -0.3476 0.7032
vn -0.8184 -0.4871 0.3048
vn -0.7775 -0.6155 -0.1292
vn -0.5356 -0.6888 -0.4886
vn -0.1600 -0.6871 -0.7087
vn 0.2804 -0.6184 -0.7342
vn 0.6784 -0.5076 -0.5311
vn 0.3099 -0.5819 -0.7519
vn 0.6953 -0.5185 -0.4976
vn 0.8921 -0.4456 -0.0747
vn 0.8411 -0.3731 0.3916
vn 0.5579 -0.3142 0.7682
vn 0.1221 -0.2851 0.9507
vn -0.3437 -0.3016 0.8893
vn -0.7045 -0.3706 0.6053
vn -0.8580 -0.4764 0.1921
vn -0.7853 -0.5759 -0.2273
vn -0.5318 -0.6278 -0.5684
vn -0.1422 -0.6243 -0.7681
vn -0.6565 -0.2789 -0.7009
vn -0.2037 -0.3281 -0.9224
vn 0.2955 -0.3799 -0.8766
vn 0.6974 -0.4173 -0.5827
vn 0.8959 -0.4249 -0.1297
vn 0.8449 -0.3975 0.3579
vn 0.5632 -0.3422 0.7522
vn 0.1269 -0.2769 0.9525
vn -0.3496 -0.2238 0.9097
vn -0.7436 -0.2008 0.6377
vn -0.9557 -0.2101 0.2060
vn -0.9291 -0.2393 -0.2820
vn -0.9259 0.1483 0.3474
vn -0.9748 0.1465 -0.1683
vn -0.7675 0.0737 -0.6368
vn -0.3620 -0.0496 -0.9309
vn 0.1307 -0.1891 -0.9732
vn 0.5786 -0.3076 -0.7554
vn 0.8640 -0.3740 -0.3372
vn 0.9126 -0.3715 0.1706
vn 0.7116 -0.3011 0.6348
vn 0.3127 -0.1808 0.9325
vn -0.1799 -0.0418 0.9828
vn -0.6341 0.0789 0.7692
vn 0.0970 -0.0757 0.9924
vn -0.3916 0.0725 0.9173
vn -0.7835 0.1737 0.5966
vn -0.9727 0.2006 0.1168
vn -0.9083 0.1460 -0.3920
vn -0.6087 0.0250 -0.7930
vn -0.1554 -0.1296 -0.9793
vn 0.3303 -0.2767 -0.9024
vn 0.7193 -0.3771 -0.5834
vn 0.9083 -0.4043 -0.1073
vn 0.8468 -0.3508 0.3998
vn 0.5503 -0.2306 0.8025
vn 0.9127 -0.3873 0.1307
vn 0.7403 -0.2903 0.6064
vn 0.3608 -0.1419 0.9218
vn -0.1238 0.0181 0.9921
vn -0.5836 0.1467 0.7987
vn -0.8952 0.2094 0.3934
vn -0.9752 0.1895 -0.1146
vn -0.8025 0.0925 -0.5895
vn -0.4235 -0.0557 -0.9042
vn 0.0604 -0.2153 -0.9747
vn 0.5198 -0.3438 -0.7820
vn 0.8319 -0.4068 -0.3775
vn 0.2772 -0.2860 -0.9173
vn 0.6875 -0.3798 -0.6189
vn 0.9045 -0.3990 -0.1508
vn 0.8693 -0.3381 0.3605
vn 0.5920 -0.2138 0.7771
vn 0.1479 -0.0597 0.9872
vn -0.3435 0.0826 0.9355
vn -0.7508 0.1751 0.6369
vn -0.9660 0.1936 0.1714
vn -0.9320 0.1333 -0.3370
vn -0.6577 0.0102 -0.7532
vn -0.2154 -0.1432 -0.9660
vn -0.8425 0.0404 -0.5371
vn -0.4780 -0.0862 -0.8741
vn 0.0083 -0.2213 -0.9752
vn 0.4861 -0.3288 -0.8097
vn 0.8243 -0.3791 -0.4204
vn 0.9300 -0.3574 0.0860
vn 0.7757 -0.2694 0.5707
vn 0.4054 -0.1395 0.9035
vn -0.0803 -0.0037 0.9968
vn -0.5517 0.1013 0.8279
vn -0.8841 0.1484 0.4431
vn -0.9905 0.1260 -0.0556
vn -0.7352 0.0444 0.6764
vn -0.9724 0.0437 0.2290
vn -0.9615 -0.0041 -0.2748
vn -0.7043 -0.0867 -0.7046
vn -0.2649 -0.1844 -0.9465
vn 0.2430 -0.2735 -0.9307
vn 0.6798 -0.3302 -0.6549
vn 0.9214 -0.3365 -0.1945
vn 0.9029 -0.2873 0.3198
vn 0.6343 -0.1960 0.7478
vn 0.1900 -0.0914 0.9775
vn -0.3108 -0.0039 0.9505
vn 0.3670 -0.0351 0.9296
vn -0.1405 -0.0282 0.9897
vn -0.6082 -0.0328 0.7931
vn -0.9179 -0.0465 0.3941
vn -0.9923 -0.0660 -0.1048
vn -0.8119 -0.0875 -0.5773
vn -0.4185 -0.1071 -0.9019
vn 0.0916 -0.1202 -0.9885
vn 0.5839 -0.1212 -0.8028
vn 0.9158 -0.1065 -0.3873
vn 0.9871 -0.0805 0.1387
vn 0.7818 -0.0538 0.6212
vn 0.9254 0.1216 0.3590
vn 0.6250 0.0491 0.7791
vn 0.1605 -0.0352 0.9864
vn -0.3422 -0.1097 0.9332
vn -0.7539 -0.1557 0.6383
vn -0.9705 -0.1618 0.1787
vn -0.9362 -0.1258 -0.3282
vn -0.6566 -0.0563 -0.7521
vn -0.1997 0.0296 -0.9794
vn 0.3162 0.1086 -0.9425
vn 0.7487 0.1577 -0.6438
vn 0.9730 0.1622 -0.1642
vn 0.8928 0.3256 -0.3114
vn 0.9417 0.2623 0.2107
vn 0.7303 0.1281 0.6710
vn 0.3233 -0.0381 0.9455
vn -0.1657 -0.1919 0.9673
vn -0.6086 -0.2949 0.7367
vn -0.8928 -0.3215 0.3156
vn -0.9458 -0.2650 -0.1877
vn -0.7525 -0.1387 -0.6438
vn -0.3594 0.0261 -0.9328
vn 0.1336 0.1865 -0.9733
vn 0.5945 0.2975 -0.7470
vn 0.4230 0.3748 -0.8250
vn 0.7762 0.4457 -0.4459
vn 0.9175 0.3936 0.0569
vn 0.8061 0.2336 0.5438
vn 0.4745 0.0120 0.8802
vn 0.0168 -0.2101 0.9775
vn -0.4428 -0.3745 0.8147
vn -0.7840 -0.4399 0.4381
vn -0.9192 -0.3903 -0.0528
vn -0.8138 -0.2383 -0.5301
vn -0.4943 -0.0222 -0.8690
vn -0.0425 0.2023 -0.9784
vn -0.1916 0.1608 -0.9682
vn 0.2728 0.3664 -0.8896
vn 0.6661 0.4750 -0.5751
vn 0.8830 0.4571 -0.1061
vn 0.8632 0.3165 0.3933
vn 0.6092 0.0899 0.7879
vn 0.1891 -0.1617 0.9686
vn -0.2819 -0.3700 0.8852
vn -0.6749 -0.4781 0.5621
vn -0.8849 -0.4571 0.0892
vn -0.8585 -0.3138 -0.4055
vn -0.6049 -0.0877 -0.7915
vn -0.7088 -0.1301 -0.6933
vn -0.3187 0.0899 -0.9436
vn 0.1539 0.2812 -0.9472
vn 0.5861 0.3975 -0.7060
vn 0.8669 0.4111 -0.2819
vn 0.9227 0.3185 0.2172
vn 0.7355 0.1415 0.6626
vn 0.3491 -0.0771 0.9339
vn -0.1358 -0.2810 0.9500
vn -0.5835 -0.4126 0.6995
vn -0.8671 -0.4284 0.2543
vn -0.9113 -0.3220 -0.2565
vn -0.9776 -0.2013 -0.0612
vn -0.8264 -0.0989 -0.5543
vn -0.4533 0.0286 -0.8909
vn 0.0355 0.1480 -0.9883
vn 0.5118 0.2290 -0.8280
vn 0.8548 0.2510 -0.4542
vn 0.9774 0.2080 0.0369
vn 0.8471 0.1106 0.5198
vn 0.4941 -0.0168 0.8692
vn 0.0058 -0.1409 0.9900
vn -0.4907 -0.2273 0.8412
vn -0.8552 -0.2496 0.4543
vn -0.7981 -0.0729 0.5981
vn -0.9891 -0.0922 0.1149
vn -0.9124 -0.0861 -0.4002
vn -0.5895 -0.0518 -0.8061
vn -0.1098 0.0004 -0.9940
vn 0.3978 0.0534 -0.9159
vn 0.7993 0.0902 -0.5941
vn 0.9884 0.1000 -0.1142
vn 0.9146 0.0821 0.3960
vn 0.5971 0.0453 0.8009
vn 0.1192 0.0018 0.9929
vn -0.3920 -0.0393 0.9191
vn -0.3055 0.0406 0.9513
vn -0.7313 -0.0615 0.6793
vn -0.9622 -0.1470 0.2293
vn -0.9404 -0.1932 -0.2797
vn -0.6731 -0.1883 -0.7152
vn -0.2294 -0.1341 -0.9641
vn 0.2766 -0.0448 -0.9600
vn 0.7123 0.0564 -0.6996
vn 0.9584 0.1426 -0.2473
vn 0.9420 0.1906 0.2762
vn 0.6643 0.1866 0.7238
vn 0.2053 0.1316 0.9698
vn 0.2999 0.2442 0.9222
vn -0.1987 0.0912 0.9758
vn -0.6402 -0.0830 0.7637
vn -0.9077 -0.2324 0.3493
vn -0.9348 -0.3199 -0.1545
vn -0.7176 -0.3241 -0.6165
vn -0.3134 -0.2440 -0.9177
vn 0.1733 -0.0992 -0.9799
vn 0.6160 0.0745 -0.7842
vn 0.8965 0.2317 -0.3777
vn 0.9352 0.3275 0.1345
vn 0.7169 0.3322 0.6129
vn 0.7655 0.4004 0.5037
vn 0.3954 0.3189 0.8614
vn -0.0826 0.1510 0.9851
vn -0.5379 -0.0570 0.8411
vn -0.8468 -0.2485 0.4703
vn -0.9276 -0.3726 -0.0254
vn -0.7611 -0.3973 -0.5127
vn -0.3931 -0.3168 -0.8632
vn 0.0785 -0.1523 -0.9852
vn 0.5294 0.0532 -0.8467
vn 0.8404 0.2456 -0.4831
vn 0.9277 0.3732 0.0109
vn 0.9317 0.3495 -0.0994
vn 0.8258 0.3959 0.4017
vn 0.5004 0.3377 0.7972
vn 0.0403 0.1891 0.9811
vn -0.4323 -0.0111 0.9016
vn -0.7890 -0.2097 0.5775
vn -0.9310 -0.3522 0.0959
vn -0.8196 -0.3990 -0.4112
vn -0.4871 -0.3373 -0.8056
vn -0.0251 -0.1851 -0.9824
vn 0.4421 0.0154 -0.8969
vn 0.7914 0.2106 -0.5738
vn 0.7426 0.1463 -0.6536
vn 0.9424 0.2687 -0.1991
vn 0.8964 0.3204 0.3064
vn 0.6165 0.2889 0.7324
vn 0.1738 0.1819 0.9678
vn -0.3178 0.0257 0.9478
vn -0.7272 -0.1401 0.6719
vn -0.9395 -0.2708 0.2099
vn -0.8919 -0.3280 -0.3114
vn -0.5982 -0.2934 -0.7457
vn -0.1433 -0.1780 -0.9735
vn 0.3469 -0.0165 -0.9378
vn 0.2354 -0.0207 -0.9717
vn 0.6804 0.0735 -0.7292
vn 0.9435 0.1476 -0.2968
vn 0.9602 0.1829 0.2111
vn 0.7281 0.1710 0.6638
vn 0.3063 0.1147 0.9450
vn -0.1979 0.0280 0.9798
vn -0.6534 -0.0672 0.7540
vn -0.9358 -0.1454 0.3211
vn -0.9615 -0.1840 -0.2043
vn -0.7186 -0.1710 -0.6741
vn -0.2774 -0.1105 -0.9544
vn -0.4128 0.0368 -0.9101
vn 0.1006 0.0410 -0.9941
vn 0.5825 0.0529 -0.8111
vn 0.9070 0.0680 -0.4155
vn 0.9930 0.0808 0.0866
vn 0.8201 0.0873 0.5655
vn 0.4327 0.0860 0.8974
vn -0.0705 0.0786 0.9944
vn -0.5586 0.0684 0.8266
vn -0.8994 0.0585 0.4332
vn -0.9954 0.0492 -0.0820
vn -0.8164 0.0408 -0.5760
vn -0.8838 0.1910 -0.4271
vn -0.5546 0.1381 -0.8206
vn -0.0731 0.0832 -0.9939
vn 0.4298 0.0409 -0.9020
vn 0.8200 0.0208 -0.5719
vn 0.9954 0.0268 -0.0924
vn 0.9102 0.0570 0.4103
vn 0.5861 0.1046 0.8034
vn 0.1078 0.1585 0.9815
vn -0.3973 0.2052 0.8945
vn -0.7926 0.2307 0.5644
vn -0.9709 0.2258 0.0803
vn -0.9235 0.2842 0.2576
vn -0.9361 0.2404 -0.2567
vn -0.6903 0.1662 -0.7042
vn -0.2538 0.0822 -0.9637
vn 0.2543 0.0108 -0.9671
vn 0.6980 -0.0301 -0.7155
vn 0.9604 -0.0301 -0.2771
vn 0.9727 0.0108 0.2320
vn 0.7314 0.0826 0.6769
vn 0.2997 0.1669 0.9393
vn -0.2082 0.2412 0.9479
vn -0.6564 0.2845 0.6987
vn -0.5049 0.2938 0.8116
vn -0.8480 0.3099 0.4300
vn -0.9584 0.2763 -0.0710
vn -0.8055 0.2021 -0.5570
vn -0.4299 0.1075 -0.8964
vn 0.0667 0.0180 -0.9976
vn 0.5503 -0.0425 -0.8339
vn 0.8910 -0.0581 -0.4503
vn 0.9985 -0.0248 0.0497
vn 0.8449 0.0487 0.5327
vn 0.4716 0.1428 0.8702
vn -0.0221 0.2325 0.9723
vn 0.1569 0.1968 0.9678
vn -0.3458 0.2636 0.9005
vn -0.7518 0.2929 0.5907
vn -0.9534 0.2769 0.1201
vn -0.8958 0.2196 -0.3865
vn -0.5929 0.1363 -0.7936
vn -0.1251 0.0493 -0.9909
vn 0.3819 -0.0179 -0.9240
vn 0.7905 -0.0472 -0.6107
vn 0.9902 -0.0306 -0.1362
vn 0.9283 0.0272 0.3708
vn 0.6230 0.1104 0.7744
vn 0.7527 0.0886 0.6524
vn 0.3276 0.1534 0.9323
vn -0.1800 0.2089 0.9612
vn -0.6360 0.2402 0.7333
vn -0.9205 0.2389 0.3093
vn -0.9581 0.2053 -0.1997
vn -0.7374 0.1483 -0.6590
vn -0.3148 0.0834 -0.9455
vn 0.1974 0.0280 -0.9799
vn 0.6603 -0.0029 -0.7510
vn 0.9473 -0.0014 -0.3203
vn 0.9805 0.0320 0.1941
vn 0.9977 0.0680 0.0069
vn 0.8575 0.0931 0.5061
vn 0.4871 0.1238 0.8645
vn -0.0102 0.1519 0.9883
vn -0.5012 0.1691 0.8487
vn -0.8578 0.1702 0.4850
vn -0.9879 0.1547 -0.0070
vn -0.8571 0.1272 -0.4992
vn -0.4973 0.0959 -0.8623
vn -0.0012 0.0693 -0.9976
vn 0.4992 0.0545 -0.8648
vn 0.8663 0.0542 -0.4966
vn 0.7086 0.0866 -0.7003
vn 0.9627 0.1141 -0.2455
vn 0.9512 0.1340 0.2779
vn 0.6761 0.1413 0.7231
vn 0.2167 0.1351 0.9669
vn -0.2986 0.1179 0.9471
vn -0.7318 0.0935 0.6751
vn -0.9717 0.0677 0.2263
vn -0.9584 0.0469 -0.2816
vn -0.6957 0.0369 -0.7174
vn -0.2504 0.0413 -0.9673
vn 0.2631 0.0596 -0.9629
vn -0.1167 -0.0176 -0.9930
vn 0.3873 0.0494 -0.9206
vn 0.7881 0.1235 -0.6030
vn 0.9755 0.1836 -0.1214
vn 0.8942 0.2118 0.3945
vn 0.5640 0.2004 0.8011
vn 0.0774 0.1537 0.9851
vn -0.4294 0.0858 0.8990
vn -0.8202 0.0150 0.5719
vn -0.9947 -0.0410 0.0942
vn -0.9104 -0.0684 -0.4081
vn -0.5902 -0.0602 -0.8050
vn -0.8677 -0.1349 -0.4785
vn -0.5148 -0.1094 -0.8503
vn -0.0288 -0.0376 -0.9989
vn 0.4621 0.0622 -0.8846
vn 0.8278 0.1639 -0.5365
vn 0.9698 0.2395 -0.0455
vn 0.8479 0.2677 0.4576
vn 0.4928 0.2404 0.8363
vn -0.0000 0.1657 0.9862
vn -0.4953 0.0647 0.8663
vn -0.8586 -0.0352 0.5114
vn -0.9940 -0.1079 0.0191
vn -0.8931 -0.0480 0.4473
vn -0.9912 -0.1187 -0.0578
vn -0.8245 -0.1404 -0.5481
vn -0.4398 -0.1075 -0.8916
vn 0.0584 -0.0293 -0.9979
vn 0.5371 0.0730 -0.8403
vn 0.8700 0.1723 -0.4619
vn 0.9694 0.2424 0.0374
vn 0.8083 0.2648 0.5258
vn 0.4279 0.2332 0.8732
vn -0.0716 0.1556 0.9852
vn -0.5559 0.0526 0.8296
vn -0.1383 0.1373 0.9808
vn -0.6138 0.0598 0.7872
vn -0.9264 -0.0176 0.3761
vn -0.9873 -0.0735 -0.1407
vn -0.7795 -0.0920 -0.6197
vn -0.3626 -0.0683 -0.9294
vn 0.1472 -0.0094 -0.9891
vn 0.6130 0.0680 -0.7872
vn 0.9137 0.1434 -0.3803
vn 0.9725 0.1973 0.1240
vn 0.7743 0.2158 0.5948
vn 0.3693 0.1941 0.9088
vn 0.7385 0.1201 0.6634
vn 0.3112 0.1286 0.9416
vn -0.2022 0.1206 0.9719
vn -0.6666 0.0979 0.7390
vn -0.9519 0.0659 0.2992
vn -0.9733 0.0327 -0.2272
vn -0.7234 0.0074 -0.6903
vn -0.2765 -0.0021 -0.9610
vn 0.2403 0.0074 -0.9707
vn 0.6885 0.0324 -0.7246
vn 0.9541 0.0654 -0.2923
vn 0.9721 0.0973 0.2134
vn 0.9777 -0.0647 -0.1999
vn 0.9509 -0.0521 0.3051
vn 0.6819 -0.0110 0.7313
vn 0.2383 0.0493 0.9699
vn -0.2685 0.1160 0.9563
vn -0.7062 0.1738 0.6864
vn -0.9524 0.2061 0.2248
vn -0.9316 0.1993 -0.3041
vn -0.6460 0.1506 -0.7483
vn -0.1798 0.0769 -0.9807
vn 0.3327 0.0051 -0.9430
vn 0.7539 -0.0451 -0.6555
vn 0.4310 0.1890 -0.8823
vn 0.8157 0.0737 -0.5738
vn 0.9936 -0.0044 -0.1130
vn 0.9252 -0.0246 0.3787
vn 0.6308 0.0169 0.7758
vn 0.1859 0.1086 0.9766
vn -0.2957 0.2277 0.9278
vn -0.6880 0.3446 0.6386
vn -0.8859 0.4271 0.1813
vn -0.8318 0.4493 -0.3260
vn -0.5313 0.4053 -0.7439
vn -0.0643 0.3100 -0.9486
vn -0.4457 0.5971 -0.6669
vn 0.0011 0.5459 -0.8378
vn 0.4672 0.4475 -0.7625
vn 0.8243 0.3239 -0.4644
vn 0.9785 0.2045 -0.0275
vn 0.8915 0.1261 0.4351
vn 0.5858 0.1155 0.8022
vn 0.1424 0.1741 0.9744
vn -0.3205 0.2817 0.9044
vn -0.6795 0.4076 0.6100
vn -0.8379 0.5188 0.1698
vn -0.7524 0.5876 -0.2978
vn -0.8806 0.4512 0.1448
vn -0.7666 0.5630 -0.3088
vn -0.4348 0.6306 -0.6429
vn 0.0151 0.6380 -0.7699
vn 0.4618 0.5783 -0.6726
vn 0.8018 0.4589 -0.3829
vn 0.9499 0.3103 0.0378
vn 0.8548 0.1804 0.4867
vn 0.5342 0.1115 0.8380
vn 0.0764 0.1205 0.9898
vn -0.3916 0.1985 0.8985
vn -0.7426 0.3194 0.5886
vn -0.4382 0.1737 0.8819
vn -0.7795 0.2813 0.5597
vn -0.9036 0.4129 0.1140
vn -0.7772 0.5344 -0.3322
vn -0.4375 0.6160 -0.6550
vn 0.0180 0.6383 -0.7696
vn 0.4671 0.5942 -0.6548
vn 0.7993 0.4915 -0.3457
vn 0.9308 0.3557 0.0844
vn 0.8192 0.2256 0.5272
vn 0.4884 0.1392 0.8614
vn 0.0270 0.1207 0.9923
vn 0.4481 0.2099 0.8690
vn -0.0117 0.1859 0.9825
vn -0.4695 0.2130 0.8569
vn -0.8024 0.2875 0.5229
vn -0.9182 0.3900 0.0694
vn -0.7840 0.4908 -0.3800
vn -0.4369 0.5612 -0.7030
vn 0.0279 0.5827 -0.8122
vn 0.4838 0.5507 -0.6802
vn 0.8098 0.4746 -0.3451
vn 0.9214 0.3746 0.1034
vn 0.7893 0.2780 0.5475
vn 0.9216 0.3748 0.1009
vn 0.7664 0.3377 0.5465
vn 0.4129 0.3191 0.8530
vn -0.0414 0.3131 0.9488
vn -0.4872 0.3138 0.8150
vn -0.8142 0.3332 0.4754
vn -0.9255 0.3785 0.0124
vn -0.7833 0.4339 -0.4451
vn -0.4261 0.4757 -0.7695
vn 0.0477 0.4875 -0.8718
vn 0.5084 0.4666 -0.7237
vn 0.8288 0.4232 -0.3659
vn 0.5367 0.3548 -0.7655
vn 0.8516 0.3487 -0.3915
vn 0.9289 0.3599 0.0870
vn 0.7521 0.3950 0.5276
vn 0.3875 0.4389 0.8107
vn -0.0597 0.4585 0.8867
vn -0.4963 0.4331 0.7524
vn -0.8225 0.3891 0.4149
vn -0.9296 0.3646 -0.0543
vn -0.7759 0.3623 -0.5164
vn -0.4067 0.3660 -0.8370
vn 0.0746 0.3638 -0.9285
vn -0.0802 0.2810 -0.9564
vn 0.4085 0.2839 -0.8675
vn 0.7833 0.2948 -0.5474
vn 0.9419 0.3247 -0.0860
vn 0.8403 0.3866 0.3800
vn 0.5231 0.4732 0.7088
vn 0.1086 0.5293 0.8414
vn -0.3275 0.4974 0.8034
vn -0.7253 0.4077 0.5547
vn -0.9369 0.3329 0.1070
vn -0.8704 0.2955 -0.3938
vn -0.5510 0.2829 -0.7851
vt 0.000000 1.000000
vt 0.017857 1.000000
vt 0.017857 0.916667
vt 0.000000 0.916667
vt 0.000000 0.083333
vt 0.017857 0.083333
vt 0.017857 0.000000
vt 0.000000 0.000000
vt 0.000000 0.166667
vt 0.017857 0.166667
vt 0.000000 0.250000
vt 0.017857 0.250000
vt 0.000000 0.333333
vt 0.017857 0.333333
vt 0.000000 0.416667
vt 0.017857 0.416667
vt 0.000000 0.500000
vt 0.017857 0.500000
vt 0.000000 0.583333
vt 0.017857 0.583333
vt 0.000000 0.666667
vt 0.017857 0.666667
vt 0.000000 0.750000
vt 0.017857 0.750000
vt 0.000000 0.833333
vt 0.017857 0.833333
vt 0.035714 1.000000
vt 0.035714 0.916667
vt 0.035714 0.083333
vt 0.035714 0.000000
vt 0.035714 0.166667
vt 0.035714 0.250000
vt 0.035714 0.333333
vt 0.035714 0.416667
vt 0.035714 0.500000
vt 0.035714 0.583333
vt 0.035714 0.666667
vt 0.035714 0.750000
vt 0.035714 0.833333
vt 0.053571 1.000000
vt 0.053571 0.916667
vt 0.053571 0.083333
vt 0.053571 0.000000
vt 0.053571 0.166667
vt 0.053571 0.250000
vt 0.053571 0.333333
vt 0.053571 0.416667
vt 0.053571 0.500000
vt 0.053571 0.583333
vt 0.053571 0.666667
vt 0.053571 0.750000
vt 0.053571 0.833333
vt 0.071429 1.000000
vt 0.071429 0.916667
vt 0.071429 0.083333
vt 0.071429 0.000000
vt 0.071429 0.166667
vt 0.071429 0.250000
vt 0.071429 0.333333
vt 0.071429 0.416667
vt 0.071429 0.500000
vt 0.071429 0.583333
vt 0.071429 0.666667
vt 0.071429 0.750000
vt 0.071429 0.833333
vt 0.089286 1.000000
vt 0.089286 0.916667
vt 0.089286 0.083333
vt 0.089286 0.000000
vt 0.089286 0.166667
vt 0.089286 0.250000
vt 0.089286 0.333333
vt 0.089286 0.416667
vt 0.089286 0.500000
vt 0.089286 0.583333
vt 0.089286 0.666667
vt 0.089286 0.750000
vt 0.089286 0.833333
vt 0.107143 1.000000
vt 0.107143 0.916667
vt 0.107143 0.083333
vt 0.107143 0.000000
vt 0.107143 0.166667
vt 0.107143 0.250000
vt 0.107143 0.333333
vt 0.107143 0.416667
vt 0.107143 0.500000
vt 0.107143 0.583333
vt 0.107143 0.666667
vt 0.107143 0.750000
vt 0.107143 0.833333
vt 0.125000 1.000000
vt 0.125000 0.916667
vt 0.125000 0.083333
vt 0.125000 0.000000
vt 0.125000 0.166667
vt 0.125000 0.250000
vt 0.125000 0.333333
vt 0.125000 0.416667
vt 0.125000 0.500000
vt 0.125000 0.583333
vt 0.125000 0.666667
vt 0.125000 0.750000
vt 0.125000 0.833333
vt 0.142857 1.000000
vt 0.142857 0.916667
vt 0.142857 0.083333
vt 0.142857 0.000000
vt 0.142857 0.166667
vt 0.142857 0.250000
vt 0.142857 0.333333
vt 0.142857 0.416667
vt 0.142857 0.500000
vt 0.142857 0.583333
vt 0.142857 0.666667
vt 0.142857 0.750000
vt 0.142857 0.833333
vt 0.160714 1.000000
vt 0.160714 0.916667
vt 0.160714 0.083333
vt 0.160714 0.000000
vt 0.160714 0.166667
vt 0.160714 0.250000
vt 0.160714 0.333333
vt 0.160714 0.416667
vt 0.160714 0.500000
vt 0.160714 0.583333
vt 0.160714 0.666667
vt 0.160714 0.750000
vt 0.160714 0.833333
vt 0.178571 1.000000
vt 0.178571 0.916667
vt 0.178571 0.083333
vt 0.178571 0.000000
vt 0.178571 0.166667
vt 0.178571 0.250000
vt 0.178571 0.333333
vt 0.178571 0.416667
vt 0.178571 0.500000
vt 0.178571 0.583333
vt 0.178571 0.666667
vt 0.178571 0.750000
vt 0.178571 0.833333
vt 0.196429 1.000000
vt 0.196429 0.916667
vt 0.196429 0.083333
vt 0.196429 0.000000
vt 0.196429 0.166667
vt 0.196429 0.250000
vt 0.196429 0.333333
vt 0.196429 0.416667
vt 0.196429 0.500000
vt 0.196429 0.583333
vt 0.196429 0.666667
vt 0.196429 0.750000
vt 0.196429 0.833333
vt 0.214286 1.000000
vt 0.214286 0.916667
vt 0.214286 0.083333
vt 0.214286 0.000000
vt 0.214286 0.166667
vt 0.214286 0.250000
vt 0.214286 0.333333
vt 0.214286 0.416667
vt 0.214286 0.500000
vt 0.214286 0.583333
vt 0.214286 0.666667
vt 0.214286 0.750000
vt 0.214286 0.833333
vt 0.232143 1.000000
vt 0.232143 0.916667
vt 0.232143 0.083333
vt 0.232143 0.000000
vt 0.232143 0.166667
vt 0.232143 0.250000
vt 0.232143 0.333333
vt 0.232143 0.416667
vt 0.232143 0.500000
vt 0.232143 0.583333
vt 0.232143 0.666667
vt 0.232143 0.750000
vt 0.232143 0.833333
vt 0.250000 1.000000
vt 0.250000 0.916667
vt 0.250000 0.083333
vt 0.250000 0.000000
vt 0.250000 0.166667
vt 0.250000 0.250000
vt 0.250000 0.333333
vt 0.250000 0.416667
vt 0.250000 0.500000
vt 0.250000 0.583333
vt 0.250000 0.666667
vt 0.250000 0.750000
vt 0.250000 0.833333
vt 0.267857 1.000000
vt 0.267857 0.916667
vt 0.267857 0.083333
vt 0.267857 0.000000
vt 0.267857 0.166667
vt 0.267857 0.250000
vt 0.267857 0.333333
vt 0.267857 0.416667
vt 0.267857 0.500000
vt 0.267857 0.583333
vt 0.267857 0.666667
vt 0.267857 0.750000
vt 0.267857 0.833333
vt 0.285714 1.000000
vt 0.285714 0.916667
vt 0.285714 0.083333
vt 0.285714 0.000000
vt 0.285714 0.166667
vt 0.285714 0.250000
vt 0.285714 0.333333
vt 0.285714 0.416667
vt 0.285714 0.500000
vt 0.285714 0.583333
vt 0.285714 0.666667
vt 0.285714 0.750000
vt 0.285714 0.833333
vt 0.303571 1.000000
vt 0.303571 0.916667
vt 0.303571 0.083333
vt 0.303571 0.000000
vt 0.303571 0.166667
vt 0.303571 0.250000
vt 0.303571 0.333333
vt 0.303571 0.416667
vt 0.303571 0.500000
vt 0.303571 0.583333
vt 0.303571 0.666667
vt 0.303571 0.750000
vt 0.303571 0.833333
vt 0.321429 1.000000
vt 0.321429 0.916667
vt 0.321429 0.083333
vt 0.321429 0.000000
vt 0.321429 0.166667
vt 0.321429 0.250000
vt 0.321429 0.333333
vt 0.321429 0.416667
vt 0.321429 0.500000
vt 0.321429 0.583333
vt 0.321429 0.666667
vt 0.321429 0.750000
vt 0.321429 0.833333
vt 0.339286 1.000000
vt 0.339286 0.916667
vt 0.339286 0.083333
vt 0.339286 0.000000
vt 0.339286 0.166667
vt 0.339286 0.250000
vt 0.339286 0.333333
vt 0.339286 0.416667
vt 0.339286 0.500000
vt 0.339286 0.583333
vt 0.339286 0.666667
vt 0.339286 0.750000
vt 0.339286 0.833333
vt 0.357143 1.000000
vt 0.357143 0.916667
vt 0.357143 0.083333
vt 0.357143 0.000000
vt 0.357143 0.166667
vt 0.357143 0.250000
vt 0.357143 0.333333
vt 0.357143 0.416667
vt 0.357143 0.500000
vt 0.357143 0.583333
vt 0.357143 0.666667
vt 0.357143 0.750000
vt 0.357143 0.833333
vt 0.375000 1.000000
vt 0.375000 0.916667
vt 0.375000 0.083333
vt 0.375000 0.000000
vt 0.375000 0.166667
vt 0.375000 0.250000
vt 0.375000 0.333333
vt 0.375000 0.416667
vt 0.375000 0.500000
vt 0.375000 0.583333
vt 0.375000 0.666667
vt 0.375000 0.750000
vt 0.375000 0.833333
vt 0.392857 1.000000
vt 0.392857 0.916667
vt 0.392857 0.083333
vt 0.392857 0.000000
vt 0.392857 0.166667
vt 0.392857 0.250000
vt 0.392857 0.333333
vt 0.392857 0.416667
vt 0.392857 0.500000
vt 0.392857 0.583333
vt 0.392857 0.666667
vt 0.392857 0.750000
vt 0.392857 0.833333
vt 0.410714 1.000000
vt 0.410714 0.916667
vt 0.410714 0.083333
vt 0.410714 0.000000
vt 0.410714 0.166667
vt 0.410714 0.250000
vt 0.410714 0.333333
vt 0.410714 0.416667
vt 0.410714 0.500000
vt 0.410714 0.583333
vt 0.410714 0.666667
vt 0.410714 0.750000
vt 0.410714 0.833333
vt 0.428571 1.000000
vt 0.428571 0.916667
vt 0.428571 0.083333
vt 0.428571 0.000000
vt 0.428571 0.166667
vt 0.428571 0.250000
vt 0.428571 0.333333
vt 0.428571 0.416667
vt 0.428571 0.500000
vt 0.428571 0.583333
vt 0.428571 0.666667
vt 0.428571 0.750000
vt 0.428571 0.833333
vt 0.446429 1.000000
vt 0.446429 0.916667
vt 0.446429 0.083333
vt 0.446429 0.000000
vt 0.446429 0.166667
vt 0.446429 0.250000
vt 0.446429 0.333333
vt 0.446429 0.416667
vt 0.446429 0.500000
vt 0.446429 0.583333
vt 0.446429 0.666667
vt 0.446429 0.750000
vt 0.446429 0.833333
vt 0.464286 1.000000
vt 0.464286 0.916667
vt 0.464286 0.083333
vt 0.464286 0.000000
vt 0.464286 0.166667
vt 0.464286 0.250000
vt 0.464286 0.333333
vt 0.464286 0.416667
vt 0.464286 0.500000
vt 0.464286 0.583333
vt 0.464286 0.666667
vt 0.464286 0.750000
vt 0.464286 0.833333
vt 0.482143 1.000000
vt 0.482143 0.916667
vt 0.482143 0.083333
vt 0.482143 0.000000
vt 0.482143 0.166667
vt 0.482143 0.250000
vt 0.482143 0.333333
vt 0.482143 0.416667
vt 0.482143 0.500000
vt 0.482143 0.583333
vt 0.482143 0.666667
vt 0.482143 0.750000
vt 0.482143 0.833333
vt 0.500000 1.000000
vt 0.500000 0.916667
vt 0.500000 0.083333
vt 0.500000 0.000000
vt 0.500000 0.166667
vt 0.500000 0.250000
vt 0.500000 0.333333
vt 0.500000 0.416667
vt 0.500000 0.500000
vt 0.500000 0.583333
vt 0.500000 0.666667
vt 0.500000 0.750000
vt 0.500000 0.833333
vt 0.517857 1.000000
vt 0.517857 0.916667
vt 0.517857 0.083333
vt 0.517857 0.000000
vt 0.517857 0.166667
vt 0.517857 0.250000
vt 0.517857 0.333333
vt 0.517857 0.416667
vt 0.517857 0.500000
vt 0.517857 0.583333
vt 0.517857 0.666667
vt 0.517857 0.750000
vt 0.517857 0.833333
vt 0.535714 1.000000
vt 0.535714 0.916667
vt 0.535714 0.083333
vt 0.535714 0.000000
vt 0.535714 0.166667
vt 0.535714 0.250000
vt 0.535714 0.333333
vt 0.535714 0.416667
vt 0.535714 0.500000
vt 0.535714 0.583333
vt 0.535714 0.666667
vt 0.535714 0.750000
vt 0.535714 0.833333
vt 0.553571 1.000000
vt 0.553571 0.916667
vt 0.553571 0.083333
vt 0.553571 0.000000
vt 0.553571 0.166667
vt 0.553571 0.250000
vt 0.553571 0.333333
vt 0.553571 0.416667
vt 0.553571 0.500000
vt 0.553571 0.583333
vt 0.553571 0.666667
vt 0.553571 0.750000
vt 0.553571 0.833333
vt 0.571429 1.000000
vt 0.571429 0.916667
vt 0.571429 0.083333
vt 0.571429 0.000000
vt 0.571429 0.166667
vt 0.571429 0.250000
vt 0.571429 0.333333
vt 0.571429 0.416667
vt 0.571429 0.500000
vt 0.571429 0.583333
vt 0.571429 0.666667
vt 0.571429 0.750000
vt 0.571429 0.833333
vt 0.589286 1.000000
vt 0.589286 0.916667
vt 0.589286 0.083333
vt 0.589286 0.000000
vt 0.589286 0.166667
vt 0.589286 0.250000
vt 0.589286 0.333333
vt 0.589286 0.416667
vt 0.589286 0.500000
vt 0.589286 0.583333
vt 0.589286 0.666667
vt 0.589286 0.750000
vt 0.589286 0.833333
vt 0.607143 1.000000
vt 0.607143 0.916667
vt 0.607143 0.083333
vt 0.607143 0.000000
vt 0.607143 0.166667
vt 0.607143 0.250000
vt 0.607143 0.333333
vt 0.607143 0.416667
vt 0.607143 0.500000
vt 0.607143 0.583333
vt 0.607143 0.666667
vt 0.607143 0.750000
vt 0.607143 0.833333
vt 0.625000 1.000000
vt 0.625000 0.916667
vt 0.625000 0.083333
vt 0.625000 0.000000
vt 0.625000 0.166667
vt 0.625000 0.250000
vt 0.625000 0.333333
vt 0.625000 0.416667
vt 0.625000 0.500000
vt 0.625000 0.583333
vt 0.625000 0.666667
vt 0.625000 0.750000
vt 0.625000 0.833333
vt 0.642857 1.000000
vt 0.642857 0.916667
vt 0.642857 0.083333
vt 0.642857 0.000000
vt 0.642857 0.166667
vt 0.642857 0.250000
vt 0.642857 0.333333
vt 0.642857 0.416667
vt 0.642857 0.500000
vt 0.642857 0.583333
vt 0.642857 0.666667
vt 0.642857 0.750000
vt 0.642857 0.833333
vt 0.660714 1.000000
vt 0.660714 0.916667
vt 0.660714 0.083333
vt 0.660714 0.000000
vt 0.660714 0.166667
vt 0.660714 0.250000
vt 0.660714 0.333333
vt 0.660714 0.416667
vt 0.660714 0.500000
vt 0.660714 0.583333
vt 0.660714 0.666667
vt 0.660714 0.750000
vt 0.660714 0.833333
vt 0.678571 1.000000
vt 0.678571 0.916667
vt 0.678571 0.083333
vt 0.678571 0.000000
vt 0.678571 0.166667
vt 0.678571 0.250000
vt 0.678571 0.333333
vt 0.678571 0.416667
vt 0.678571 0.500000
vt 0.678571 0.583333
vt 0.678571 0.666667
vt 0.678571 0.750000
vt 0.678571 0.833333
vt 0.696429 1.000000
vt 0.696429 0.916667
vt 0.696429 0.083333
vt 0.696429 0.000000
vt 0.696429 0.166667
vt 0.696429 0.250000
vt 0.696429 0.333333
vt 0.696429 0.416667
vt 0.696429 0.500000
vt 0.696429 0.583333
vt 0.696429 0.666667
vt 0.696429 0.750000
vt 0.696429 0.833333
vt 0.714286 1.000000
vt 0.714286 0.916667
vt 0.714286 0.083333
vt 0.714286 0.000000
vt 0.714286 0.166667
vt 0.714286 0.250000
vt 0.714286 0.333333
vt 0.714286 0.416667
vt 0.714286 0.500000
vt 0.714286 0.583333
vt 0.714286 0.666667
vt 0.714286 0.750000
vt 0.714286 0.833333
vt 0.732143 1.000000
vt 0.732143 0.916667
vt 0.732143 0.083333
vt 0.732143 0.000000
vt 0.732143 0.166667
vt 0.732143 0.250000
vt 0.732143 0.333333
vt 0.732143 0.416667
vt 0.732143 0.500000
vt 0.732143 0.583333
vt 0.732143 0.666667
vt 0.732143 0.750000
vt 0.732143 0.833333
vt 0.750000 1.000000
vt 0.750000 0.916667
vt 0.750000 0.083333
vt 0.750000 0.000000
vt 0.750000 0.166667
vt 0.750000 0.250000
vt 0.750000 0.333333
vt 0.750000 0.416667
vt 0.750000 0.500000
vt 0.750000 0.583333
vt 0.750000 0.666667
vt 0.750000 0.750000
vt 0.750000 0.833333
vt 0.767857 1.000000
vt 0.767857 0.916667
vt 0.767857 0.083333
vt 0.767857 0.000000
vt 0.767857 0.166667
vt 0.767857 0.250000
vt 0.767857 0.333333
vt 0.767857 0.416667
vt 0.767857 0.500000
vt 0.767857 0.583333
vt 0.767857 0.666667
vt 0.767857 0.750000
vt 0.767857 0.833333
vt 0.785714 1.000000
vt 0.785714 0.916667
vt 0.785714 0.083333
vt 0.785714 0.000000
vt 0.785714 0.166667
vt 0.785714 0.250000
vt 0.785714 0.333333
vt 0.785714 0.416667
vt 0.785714 0.500000
vt 0.785714 0.583333
vt 0.785714 0.666667
vt 0.785714 0.750000
vt 0.785714 0.833333
vt 0.803571 1.000000
vt 0.803571 0.916667
vt 0.803571 0.083333
vt 0.803571 0.000000
vt 0.803571 0.166667
vt 0.803571 0.250000
vt 0.803571 0.333333
vt 0.803571 0.416667
vt 0.803571 0.500000
vt 0.803571 0.583333
vt 0.803571 0.666667
vt 0.803571 0.750000
vt 0.803571 0.833333
vt 0.821429 1.000000
vt 0.821429 0.916667
vt 0.821429 0.083333
vt 0.821429 0.000000
vt 0.821429 0.166667
vt 0.821429 0.250000
vt 0.821429 0.333333
vt 0.821429 0.416667
vt 0.821429 0.500000
vt 0.821429 0.583333
vt 0.821429 0.666667
vt 0.821429 0.750000
vt 0.821429 0.833333
vt 0.839286 1.000000
vt 0.839286 0.916667
vt 0.839286 0.083333
vt 0.839286 0.000000
vt 0.839286 0.166667
vt 0.839286 0.250000
vt 0.839286 0.333333
vt 0.839286 0.416667
vt 0.839286 0.500000
vt 0.839286 0.583333
vt 0.839286 0.666667
vt 0.839286 0.750000
vt 0.839286 0.833333
vt 0.857143 1.000000
vt 0.857143 0.916667
vt 0.857143 0.083333
vt 0.857143 0.000000
vt 0.857143 0.166667
vt 0.857143 0.250000
vt 0.857143 0.333333
vt 0.857143 0.416667
vt 0.857143 0.500000
vt 0.857143 0.583333
vt 0.857143 0.666667
vt 0.857143 0.750000
vt 0.857143 0.833333
vt 0.875000 1.000000
vt 0.875000 0.916667
vt 0.875000 0.083333
vt 0.875000 0.000000
vt 0.875000 0.166667
vt 0.875000 0.250000
vt 0.875000 0.333333
vt 0.875000 0.416667
vt 0.875000 0.500000
vt 0.875000 0.583333
vt 0.875000 0.666667
vt 0.875000 0.750000
vt 0.875000 0.833333
vt 0.892857 1.000000
vt 0.892857 0.916667
vt 0.892857 0.083333
vt 0.892857 0.000000
vt 0.892857 0.166667
vt 0.892857 0.250000
vt 0.892857 0.333333
vt 0.892857 0.416667
vt 0.892857 0.500000
vt 0.892857 0.583333
vt 0.892857 0.666667
vt 0.892857 0.750000
vt 0.892857 0.833333
vt 0.910714 1.000000
vt 0.910714 0.916667
vt 0.910714 0.083333
vt 0.910714 0.000000
vt 0.910714 0.166667
vt 0.910714 0.250000
vt 0.910714 0.333333
vt 0.910714 0.416667
vt 0.910714 0.500000
vt 0.910714 0.583333
vt 0.910714 0.666667
vt 0.910714 0.750000
vt 0.910714 0.833333
vt 0.928571 1.000000
vt 0.928571 0.916667
vt 0.928571 0.083333
vt 0.928571 0.000000
vt 0.928571 0.166667
vt 0.928571 0.250000
vt 0.928571 0.333333
vt 0.928571 0.416667
vt 0.928571 0.500000
vt 0.928571 0.583333
vt 0.928571 0.666667
vt 0.928571 0.750000
vt 0.928571 0.833333
vt 0.946429 1.000000
vt 0.946429 0.916667
vt 0.946429 0.083333
vt 0.946429 0.000000
vt 0.946429 0.166667
vt 0.946429 0.250000
vt 0.946429 0.333333
vt 0.946429 0.416667
vt 0.946429 0.500000
vt 0.946429 0.583333
vt 0.946429 0.666667
vt 0.946429 0.750000
vt 0.946429 0.833333
vt 0.964286 1.000000
vt 0.964286 0.916667
vt 0.964286 0.083333
vt 0.964286 0.000000
vt 0.964286 0.166667
vt 0.964286 0.250000
vt 0.964286 0.333333
vt 0.964286 0.416667
vt 0.964286 0.500000
vt 0.964286 0.583333
vt 0.964286 0.666667
vt 0.964286 0.750000
vt 0.964286 0.833333
vt 0.982143 1.000000
vt 0.982143 0.916667
vt 0.982143 0.083333
vt 0.982143 0.000000
vt 0.982143 0.166667
vt 0.982143 0.250000
vt 0.982143 0.333333
vt 0.982143 0.416667
vt 0.982143 0.500000
vt 0.982143 0.583333
vt 0.982143 0.666667
vt 0.982143 0.750000
vt 0.982143 0.833333
vt 1.000000 1.000000
vt 1.000000 0.916667
vt 1.000000 0.083333
vt 1.000000 0.000000
vt 1.000000 0.166667
vt 1.000000 0.250000
vt 1.000000 0.333333
vt 1.000000 0.416667
vt 1.000000 0.500000
vt 1.000000 0.583333
vt 1.000000 0.666667
vt 1.000000 0.750000
vt 1.000000 0.833333
s 1
f 1/1/1 13/2/13 24/3/24 12/4/12
f 2/5/2 14/6/14 13/7/13 1/8/1
f 3/9/3 15/10/15 14/6/14 2/5/2
f 4/11/4 16/12/16 15/10/15 3/9/3
f 5/13/5 17/14/17 16/12/16 4/11/4
f 6/15/6 18/16/18 17/14/17 5/13/5
f 7/17/7 19/18/19 18/16/18 6/15/6
f 8/19/8 20/20/20 19/18/19 7/17/7
f 9/21/9 21/22/21 20/20/20 8/19/8
f 10/23/10 22/24/22 21/22/21 9/21/9
f 11/25/11 23/26/23 22/24/22 10/23/10
f 12/4/12 24/3/24 23/26/23 11/25/11
f 13/2/13 25/27/25 36/28/36 24/3/24
f 14/6/14 26/29/26 25/30/25 13/7/13
f 15/10/15 27/31/27 26/29/26 14/6/14
f 16/12/16 28/32/28 27/31/27 15/10/15
f 17/14/17 29/33/29 28/32/28 16/12/16
f 18/16/18 30/34/30 29/33/29 17/14/17
f 19/18/19 31/35/31 30/34/30 18/16/18
f 20/20/20 32/36/32 31/35/31 19/18/19
f 21/22/21 33/37/33 32/36/32 20/20/20
f 22/24/22 34/38/34 33/37/33 21/22/21
f 23/26/23 35/39/35 34/38/34 22/24/22
f 24/3/24 36/28/36 35/39/35 23/26/23
f 25/27/25 37/40/37 48/41/48 36/28/36
f 26/29/26 38/42/38 37/43/37 25/30/25
f 27/31/27 39/44/39 38/42/38 26/29/26
f 28/32/28 40/45/40 39/44/39 27/31/27
f 29/33/29 41/46/41 40/45/40 28/32/28
f 30/34/30 42/47/42 41/46/41 29/33/29
f 31/35/31 43/48/43 42/47/42 30/34/30
f 32/36/32 44/49/44 43/48/43 31/35/31
f 33/37/33 45/50/45 44/49/44 32/36/32
f 34/38/34 46/51/46 45/50/45 33/37/33
f 35/39/35 47/52/47 46/51/46 34/38/34
f 36/28/36 48/41/48 47/52/47 35/39/35
f 37/40/37 49/53/49 60/54/60 48/41/48
f 38/42/38 50/55/50 49/56/49 37/43/37
f 39/44/39 51/57/51 50/55/50 38/42/38
f 40/45/40 52/58/52 51/57/51 39/44/39
f 41/46/41 53/59/53 52/58/52 40/45/40
f 42/47/42 54/60/54 53/59/53 41/46/41
f 43/48/43 55/61/55 54/60/54 42/47/42
f 44/49/44 56/62/56 55/61/55 43/48/43
f 45/50/45 57/63/57 56/62/56 44/49/44
f 46/51/46 58/64/58 57/63/57 45/50/45
f 47/52/47 59/65/59 58/64/58 46/51/46
f 48/41/48 60/54/60 59/65/59 47/52/47
f 49/53/49 61/66/61 72/67/72 60/54/60
f 50/55/50 62/68/62 61/69/61 49/56/49
f 51/57/51 63/70/63 62/68/62 50/55/50
f 52/58/52 64/71/64 63/70/63 51/57/51
f 53/59/53 65/72/65 64/71/64 52/58/52
f 54/60/54 66/73/66 65/72/65 53/59/53
f 55/61/55 67/74/67 66/73/66 54/60/54
f 56/62/56 68/75/68 67/74/67 55/61/55
f 57/63/57 69/76/69 68/75/68 56/62/56
f 58/64/58 70/77/70 69/76/69 57/63/57
f 59/65/59 71/78/71 70/77/70 58/64/58
f 60/54/60 72/67/72 71/78/71 59/65/59
f 61/66/61 73/79/73 84/80/84 72/67/72
f 62/68/62 74/81/74 73/82/73 61/69/61
f 63/70/63 75/83/75 74/81/74 62/68/62
f 64/71/64 76/84/76 75/83/75 63/70/63
f 65/72/65 77/85/77 76/84/76 64/71/64
f 66/73/66 78/86/78 77/85/77 65/72/65
f 67/74/67 79/87/79 78/86/78 66/73/66
f 68/75/68 80/88/80 79/87/79 67/74/67
f 69/76/69 81/89/81 80/88/80 68/75/68
f 70/77/70 82/90/82 81/89/81 69/76/69
f 71/78/71 83/91/83 82/90/82 70/77/70
f 72/67/72 84/80/84 83/91/83 71/78/71
f 73/79/73 85/92/85 96/93/96 84/80/84
f 74/81/74 86/94/86 85/95/85 73/82/73
f 75/83/75 87/96/87 86/94/86 74/81/74
f 76/84/76 88/97/88 87/96/87 75/83/75
f 77/85/77 89/98/89 88/97/88 76/84/76
f 78/86/78 90/99/90 89/98/89 77/85/77
f 79/87/79 91/100/91 90/99/90 78/86/78
f 80/88/80 92/101/92 91/100/91 79/87/79
f 81/89/81 93/102/93 92/101/92 80/88/80
f 82/90/82 94/103/94 93/102/93 81/89/81
f 83/91/83 95/104/95 94/103/94 82/90/82
f 84/80/84 96/93/96 95/104/95 83/91/83
f 85/92/85 97/105/97 108/106/108 96/93/96
f 86/94/86 98/107/98 97/108/97 85/95/85
f 87/96/87 99/109/99 98/107/98 86/94/86
f 88/97/88 100/110/100 99/109/99 87/96/87
f 89/98/89 101/111/101 100/110/100 88/97/88
f 90/99/90 102/112/102 101/111/101 89/98/89
f 91/100/91 103/113/103 102/112/102 90/99/90
f 92/101/92 104/114/104 103/113/103 91/100/91
f 93/102/93 105/115/105 104/114/104 92/101/92
f 94/103/94 106/116/106 105/115/105 93/102/93
f 95/104/95 107/117/107 106/116/106 94/103/94
f 96/93/96 108/106/108 107/117/107 95/104/95
f 97/105/97 109/118/109 120/119/120 108/106/108
f 98/107/98 110/120/110 109/121/109 97/108/97
f 99/109/99 111/122/111 110/120/110 98/107/98
f 100/110/100 112/123/112 111/122/111 99/109/99
f 101/111/101 113/124/113 112/123/112 100/110/100
f 102/112/102 114/125/114 113/124/113 101/111/101
f 103/113/103 115/126/115 114/125/114 102/112/102
f 104/114/104 116/127/116 115/126/115 103/113/103
f 105/115/105 117/128/117 116/127/116 104/114/104
f 106/116/106 118/129/118 117/128/117 105/115/105
f 107/117/107 119/130/119 118/129/118 106/116/106
f 108/106/108 120/119/120 119/130/119 107/117/107
f 109/118/109 121/131/121 132/132/132 120/119/120
f 110/120/110 122/133/122 121/134/121 109/121/109
f 111/122/111 123/135/123 122/133/122 110/120/110
f 112/123/112 124/136/124 123/135/123 111/122/111
f 113/124/113 125/137/125 124/136/124 112/123/112
f 114/125/114 126/138/126 125/137/125 113/124/113
f 115/126/115 127/139/127 126/138/126 114/125/114
f 116/127/116 128/140/128 127/139/127 115/126/115
f 117/128/117 129/141/129 128/140/128 116/127/116
f 118/129/118 130/142/130 129/141/129 117/128/117
f 119/130/119 131/143/131 130/142/130 118/129/118
f 120/119/120 132/132/132 131/143/131 119/130/119
f 121/131/121 133/144/133 144/145/144 132/132/132
f 122/133/122 134/146/134 133/147/133 121/134/121
f 123/135/123 135/148/135 134/146/134 122/133/122
f 124/136/124 136/149/136 135/148/135 123/135/123
f 125/137/125 137/150/137 136/149/136 124/136/124
f 126/138/126 138/151/138 137/150/137 125/137/125
f 127/139/127 139/152/139 138/151/138 126/138/126
f 128/140/128 140/153/140 139/152/139 127/139/127
f 129/141/129 141/154/141 140/153/140 128/140/128
f 130/142/130 142/155/142 141/154/141 129/141/129
f 131/143/131 143/156/143 142/155/142 130/142/130
f 132/132/132 144/145/144 143/156/143 131/143/131
f 133/144/133 145/157/145 156/158/156 144/145/144
f 134/146/134 146/159/146 145/160/145 133/147/133
f 135/148/135 147/161/147 146/159/146 134/146/134
f 136/149/136 148/162/148 147/161/147 135/148/135
f 137/150/137 149/163/149 148/162/148 136/149/136
f 138/151/138 150/164/150 149/163/149 137/150/137
f 139/152/139 151/165/151 150/164/150 138/151/138
f 140/153/140 152/166/152 151/165/151 139/152/139
f 141/154/141 153/167/153 152/166/152 140/153/140
f 142/155/142 154/168/154 153/167/153 141/154/141
f 143/156/143 155/169/155 154/168/154 142/155/142
f 144/145/144 156/158/156 155/169/155 143/156/143
f 145/157/145 157/170/157 168/171/168 156/158/156
f 146/159/146 158/172/158 157/173/157 145/160/145
f 147/161/147 159/174/159 158/172/158 146/159/146
f 148/162/148 160/175/160 159/174/159 147/161/147
f 149/163/149 161/176/161 160/175/160 148/162/148
f 150/164/150 162/177/162 161/176/161 149/163/149
f 151/165/151 163/178/163 162/177/162 150/164/150
f 152/166/152 164/179/164 163/178/163 151/165/151
f 153/167/153 165/180/165 164/179/164 152/166/152
f 154/168/154 166/181/166 165/180/165 153/167/153
f 155/169/155 167/182/167 166/181/166 154/168/154
f 156/158/156 168/171/168 167/182/167 155/169/155
f 157/170/157 169/183/169 180/184/180 168/171/168
f 158/172/158 170/185/170 169/186/169 157/173/157
f 159/174/159 171/187/171 170/185/170 158/172/158
f 160/175/160 172/188/172 171/187/171 159/174/159
f 161/176/161 173/189/173 172/188/172 160/175/160
f 162/177/162 174/190/174 173/189/173 161/176/161
f 163/178/163 175/191/175 174/190/174 162/177/162
f 164/179/164 176/192/176 175/191/175 163/178/163
f 165/180/165 177/193/177 176/192/176 164/179/164
f 166/181/166 178/194/178 177/193/177 165/180/165
f 167/182/167 179/195/179 178/194/178 166/181/166
f 168/171/168 180/184/180 179/195/179 167/182/167
f 169/183/169 181/196/181 192/197/192 180/184/180
f 170/185/170 182/198/182 181/199/181 169/186/169
f 171/187/171 183/200/183 182/198/182 170/185/170
f 172/188/172 184/201/184 183/200/183 171/187/171
f 173/189/173 185/202/185 184/201/184 172/188/172
f 174/190/174 186/203/186 185/202/185 173/189/173
f 175/191/175 187/204/187 186/203/186 174/190/174
f 176/192/176 188/205/188 187/204/187 175/191/175
f 177/193/177 189/206/189 188/205/188 176/192/176
f 178/194/178 190/207/190 189/206/189 177/193/177
f 179/195/179 191/208/191 190/207/190 178/194/178
f 180/184/180 192/197/192 191/208/191 179/195/179
f 181/196/181 193/209/193 204/210/204 192/197/192
f 182/198/182 194/211/194 193/212/193 181/199/181
f 183/200/183 195/213/195 194/211/194 182/198/182
f 184/201/184 196/214/196 195/213/195 183/200/183
f 185/202/185 197/215/197 196/214/196 184/201/184
f 186/203/186 198/216/198 197/215/197 185/202/185
f 187/204/187 199/217/199 198/216/198 186/203/186
f 188/205/188 200/218/200 199/217/199 187/204/187
f 189/206/189 201/219/201 200/218/200 188/205/188
f 190/207/190 202/220/202 201/219/201 189/206/189
f 191/208/191 203/221/203 202/220/202 190/207/190
f 192/197/192 204/210/204 203/221/203 191/208/191
f 193/209/193 205/222/205 216/223/216 204/210/204
f 194/211/194 206/224/206 205/225/205 193/212/193
f 195/213/195 207/226/207 206/224/206 194/211/194
f 196/214/196 208/227/208 207/226/207 195/213/195
f 197/215/197 209/228/209 208/227/208 196/214/196
f 198/216/198 210/229/210 209/228/209 197/215/197
f 199/217/199 211/230/211 210/229/210 198/216/198
f 200/218/200 212/231/212 211/230/211 199/217/199
f 201/219/201 213/232/213 212/231/212 200/218/200
f 202/220/202 214/233/214 213/232/213 201/219/201
f 203/221/203 215/234/215 214/233/214 202/220/202
f 204/210/204 216/223/216 215/234/215 203/221/203
f 205/222/205 217/235/217 228/236/228 216/223/216
f 206/224/206 218/237/218 217/238/217 205/225/205
f 207/226/207 219/239/219 218/237/218 206/224/206
f 208/227/208 220/240/220 219/239/219 207/226/207
f 209/228/209 221/241/221 220/240/220 208/227/208
f 210/229/210 222/242/222 221/241/221 209/228/209
f 211/230/211 223/243/223 222/242/222 210/229/210
f 212/231/212 224/244/224 223/243/223 211/230/211
f 213/232/213 225/245/225 224/244/224 212/231/212
f 214/233/214 226/246/226 225/245/225 213/232/213
f 215/234/215 227/247/227 226/246/226 214/233/214
f 216/223/216 228/236/228 227/247/227 215/234/215
f 217/235/217 229/248/229 240/249/240 228/236/228
f 218/237/218 230/250/230 229/251/229 217/238/217
f 219/239/219 231/252/231 230/250/230 218/237/218
f 220/240/220 232/253/232 231/252/231 219/239/219
f 221/241/221 233/254/233 232/253/232 220/240/220
f 222/242/222 234/255/234 233/254/233 221/241/221
f 223/243/223 235/256/235 234/255/234 222/242/222
f 224/244/224 236/257/236 235/256/235 223/243/223
f 225/245/225 237/258/237 236/257/236 224/244/224
f 226/246/226 238/259/238 237/258/237 225/245/225
f 227/247/227 239/260/239 238/259/238 226/246/226
f 228/236/228 240/249/240 239/260/239 227/247/227
f 229/248/229 241/261/241 252/262/252 240/249/240
f 230/250/230 242/263/242 241/264/241 229/251/229
f 231/252/231 243/265/243 242/263/242 230/250/230
f 232/253/232 244/266/244 243/265/243 231/252/231
f 233/254/233 245/267/245 244/266/244 232/253/232
f 234/255/234 246/268/246 245/267/245 233/254/233
f 235/256/235 247/269/247 246/268/246 234/255/234
f 236/257/236 248/270/248 247/269/247 235/256/235
f 237/258/237 249/271/249 248/270/248 236/257/236
f 238/259/238 250/272/250 249/271/249 237/258/237
f 239/260/239 251/273/251 250/272/250 238/259/238
f 240/249/240 252/262/252 251/273/251 239/260/239
f 241/261/241 253/274/253 264/275/264 252/262/252
f 242/263/242 254/276/254 253/277/253 241/264/241
f 243/265/243 255/278/255 254/276/254 242/263/242
f 244/266/244 256/279/256 255/278/255 243/265/243
f 245/267/245 257/280/257 256/279/256 244/266/244
f 246/268/246 258/281/258 257/280/257 245/267/245
f 247/269/247 259/282/259 258/281/258 246/268/246
f 248/270/248 260/283/260 259/282/259 247/269/247
f 249/271/249 261/284/261 260/283/260 248/270/248
f 250/272/250 262/285/262 261/284/261 249/271/249
f 251/273/251 263/286/263 262/285/262 250/272/250
f 252/262/252 264/275/264 263/286/263 251/273/251
f 253/274/253 265/287/265 276/288/276 264/275/264
f 254/276/254 266/289/266 265/290/265 253/277/253
f 255/278/255 267/291/267 266/289/266 254/276/254
f 256/279/256 268/292/268 267/291/267 255/278/255
f 257/280/257 269/293/269 268/292/268 256/279/256
f 258/281/258 270/294/270 269/293/269 257/280/257
f 259/282/259 271/295/271 270/294/270 258/281/258
f 260/283/260 272/296/272 271/295/271 259/282/259
f 261/284/261 273/297/273 272/296/272 260/283/260
f 262/285/262 274/298/274 273/297/273 261/284/261
f 263/286/263 275/299/275 274/298/274 262/285/262
f 264/275/264 276/288/276 275/299/275 263/286/263
f 265/287/265 277/300/277 288/301/288 276/288/276
f 266/289/266 278/302/278 277/303/277 265/290/265
f 267/291/267 279/304/279 278/302/278 266/289/266
f 268/292/268 280/305/280 279/304/279 267/291/267
f 269/293/269 281/306/281 280/305/280 268/292/268
f 270/294/270 282/307/282 281/306/281 269/293/269
f 271/295/271 283/308/283 282/307/282 270/294/270
f 272/296/272 284/309/284 283/308/283 271/295/271
f 273/297/273 285/310/285 284/309/284 272/296/272
f 274/298/274 286/311/286 285/310/285 273/297/273
f 275/299/275 287/312/287 286/311/286 274/298/274
f 276/288/276 288/301/288 287/312/287 275/299/275
f 277/300/277 289/313/289 300/314/300 288/301/288
f 278/302/278 290/315/290 289/316/289 277/303/277
f 279/304/279 291/317/291 290/315/290 278/302/278
f 280/305/280 292/318/292 291/317/291 279/304/279
f 281/306/281 293/319/293 292/318/292 280/305/280
f 282/307/282 294/320/294 293/319/293 281/306/281
f 283/308/283 295/321/295 294/320/294 282/307/282
f 284/309/284 296/322/296 295/321/295 283/308/283
f 285/310/285 297/323/297 296/322/296 284/309/284
f 286/311/286 298/324/298 297/323/297 285/310/285
f 287/312/287 299/325/299 298/324/298 286/311/286
f 288/301/288 300/314/300 299/325/299 287/312/287
f 289/313/289 301/326/301 312/327/312 300/314/300
f 290/315/290 302/328/302 301/329/301 289/316/289
f 291/317/291 303/330/303 302/328/302 290/315/290
f 292/318/292 304/331/304 303/330/303 291/317/291
f 293/319/293 305/332/305 304/331/304 292/318/292
f 294/320/294 306/333/306 305/332/305 293/319/293
f 295/321/295 307/334/307 306/333/306 294/320/294
f 296/322/296 308/335/308 307/334/307 295/321/295
f 297/323/297 309/336/309 308/335/308 296/322/296
f 298/324/298 310/337/310 309/336/309 297/323/297
f 299/325/299 311/338/311 310/337/310 298/324/298
f 300/314/300 312/327/312 311/338/311 299/325/299
f 301/326/301 313/339/313 324/340/324 312/327/312
f 302/328/302 314/341/314 313/342/313 301/329/301
f 303/330/303 315/343/315 314/341/314 302/328/302
f 304/331/304 316/344/316 315/343/315 303/330/303
f 305/332/305 317/345/317 316/344/316 304/331/304
f 306/333/306 318/346/318 317/345/317 305/332/305
f 307/334/307 319/347/319 318/346/318 306/333/306
f 308/335/308 320/348/320 319/347/319 307/334/307
f 309/336/309 321/349/321 320/348/320 308/335/308
f 310/337/310 322/350/322 321/349/321 309/336/309
f 311/338/311 323/351/323 322/350/322 310/337/310
f 312/327/312 324/340/324 323/351/323 311/338/311
f 313/339/313 325/352/325 336/353/336 324/340/324
f 314/341/314 326/354/326 325/355/325 313/342/313
f 315/343/315 327/356/327 326/354/326 314/341/314
f 316/344/316 328/357/328 327/356/327 315/343/315
f 317/345/317 329/358/329 328/357/328 316/344/316
f 318/346/318 330/359/330 329/358/329 317/345/317
f 319/347/319 331/360/331 330/359/330 318/346/318
f 320/348/320 332/361/332 331/360/331 319/347/319
f 321/349/321 333/362/333 332/361/332 320/348/320
f 322/350/322 334/363/334 333/362/333 321/349/321
f 323/351/323 335/364/335 334/363/334 322/350/322
f 324/340/324 336/353/336 335/364/335 323/351/323
f 325/352/325 337/365/337 348/366/348 336/353/336
f 326/354/326 338/367/338 337/368/337 325/355/325
f 327/356/327 339/369/339 338/367/338 326/354/326
f 328/357/328 340/370/340 339/369/339 327/356/327
f 329/358/329 341/371/341 340/370/340 328/357/328
f 330/359/330 342/372/342 341/371/341 329/358/329
f 331/360/331 343/373/343 342/372/342 330/359/330
f 332/361/332 344/374/344 343/373/343 331/360/331
f 333/362/333 345/375/345 344/374/344 332/361/332
f 334/363/334 346/376/346 345/375/345 333/362/333
f 335/364/335 347/377/347 346/376/346 334/363/334
f 336/353/336 348/366/348 347/377/347 335/364/335
f 337/365/337 349/378/349 360/379/360 348/366/348
f 338/367/338 350/380/350 349/381/349 337/368/337
f 339/369/339 351/382/351 350/380/350 338/367/338
f 340/370/340 352/383/352 351/382/351 339/369/339
f 341/371/341 353/384/353 352/383/352 340/370/340
f 342/372/342 354/385/354 353/384/353 341/371/341
f 343/373/343 355/386/355 354/385/354 342/372/342
f 344/374/344 356/387/356 355/386/355 343/373/343
f 345/375/345 357/388/357 356/387/356 344/374/344
f 346/376/346 358/389/358 357/388/357 345/375/345
f 347/377/347 359/390/359 358/389/358 346/376/346
f 348/366/348 360/379/360 359/390/359 347/377/347
f 349/378/349 361/391/361 372/392/372 360/379/360
f 350/380/350 362/393/362 361/394/361 349/381/349
f 351/382/351 363/395/363 362/393/362 350/380/350
f 352/383/352 364/396/364 363/395/363 351/382/351
f 353/384/353 365/397/365 364/396/364 352/383/352
f 354/385/354 366/398/366 365/397/365 353/384/353
f 355/386/355 367/399/367 366/398/366 354/385/354
f 356/387/356 368/400/368 367/399/367 355/386/355
f 357/388/357 369/401/369 368/400/368 356/387/356
f 358/389/358 370/402/370 369/401/369 357/388/357
f 359/390/359 371/403/371 370/402/370 358/389/358
f 360/379/360 372/392/372 371/403/371 359/390/359
f 361/391/361 373/404/373 384/405/384 372/392/372
f 362/393/362 374/406/374 373/407/373 361/394/361
f 363/395/363 375/408/375 374/406/374 362/393/362
f 364/396/364 376/409/376 375/408/375 363/395/363
f 365/397/365 377/410/377 376/409/376 364/396/364
f 366/398/366 378/411/378 377/410/377 365/397/365
f 367/399/367 379/412/379 378/411/378 366/398/366
f 368/400/368 380/413/380 379/412/379 367/399/367
f 369/401/369 381/414/381 380/413/380 368/400/368
f 370/402/370 382/415/382 381/414/381 369/401/369
f 371/403/371 383/416/383 382/415/382 370/402/370
f 372/392/372 384/405/384 383/416/383 371/403/371
f 373/404/373 385/417/385 396/418/396 384/405/384
f 374/406/374 386/419/386 385/420/385 373/407/373
f 375/408/375 387/421/387 386/419/386 374/406/374
f 376/409/376 388/422/388 387/421/387 375/408/375
f 377/410/377 389/423/389 388/422/388 376/409/376
f 378/411/378 390/424/390 389/423/389 377/410/377
f 379/412/379 391/425/391 390/424/390 378/411/378
f 380/413/380 392/426/392 391/425/391 379/412/379
f 381/414/381 393/427/393 392/426/392 380/413/380
f 382/415/382 394/428/394 393/427/393 381/414/381
f 383/416/383 395/429/395 394/428/394 382/415/382
f 384/405/384 396/418/396 395/429/395 383/416/383
f 385/417/385 397/430/397 408/431/408 396/418/396
f 386/419/386 398/432/398 397/433/397 385/420/385
f 387/421/387 399/434/399 398/432/398 386/419/386
f 388/422/388 400/435/400 399/434/399 387/421/387
f 389/423/389 401/436/401 400/435/400 388/422/388
f 390/424/390 402/437/402 401/436/401 389/423/389
f 391/425/391 403/438/403 402/437/402 390/424/390
f 392/426/392 404/439/404 403/438/403 391/425/391
f 393/427/393 405/440/405 404/439/404 392/426/392
f 394/428/394 406/441/406 405/440/405 393/427/393
f 395/429/395 407/442/407 406/441/406 394/428/394
f 396/418/396 408/431/408 407/442/407 395/429/395
f 397/430/397 409/443/409 420/444/420 408/431/408
f 398/432/398 410/445/410 409/446/409 397/433/397
f 399/434/399 411/447/411 410/445/410 398/432/398
f 400/435/400 412/448/412 411/447/411 399/434/399
f 401/436/401 413/449/413 412/448/412 400/435/400
f 402/437/402 414/450/414 413/449/413 401/436/401
f 403/438/403 415/451/415 414/450/414 402/437/402
f 404/439/404 416/452/416 415/451/415 403/438/403
f 405/440/405 417/453/417 416/452/416 404/439/404
f 406/441/406 418/454/418 417/453/417 405/440/405
f 407/442/407 419/455/419 418/454/418 406/441/406
f 408/431/408 420/444/420 419/455/419 407/442/407
f 409/443/409 421/456/421 432/457/432 420/444/420
f 410/445/410 422/458/422 421/459/421 409/446/409
f 411/447/411 423/460/423 422/458/422 410/445/410
f 412/448/412 424/461/424 423/460/423 411/447/411
f 413/449/413 425/462/425 424/461/424 412/448/412
f 414/450/414 426/463/426 425/462/425 413/449/413
f 415/451/415 427/464/427 426/463/426 414/450/414
f 416/452/416 428/465/428 427/464/427 415/451/415
f 417/453/417 429/466/429 428/465/428 416/452/416
f 418/454/418 430/467/430 429/466/429 417/453/417
f 419/455/419 431/468/431 430/467/430 418/454/418
f 420/444/420 432/457/432 431/468/431 419/455/419
f 421/456/421 433/469/433 444/470/444 432/457/432
f 422/458/422 434/471/434 433/472/433 421/459/421
f 423/460/423 435/473/435 434/471/434 422/458/422
f 424/461/424 436/474/436 435/473/435 423/460/423
f 425/462/425 437/475/437 436/474/436 424/461/424
f 426/463/426 438/476/438 437/475/437 425/462/425
f 427/464/427 439/477/439 438/476/438 426/463/426
f 428/465/428 440/478/440 439/477/439 427/464/427
f 429/466/429 441/479/441 440/478/440 428/465/428
f 430/467/430 442/480/442 441/479/441 429/466/429
f 431/468/431 443/481/443 442/480/442 430/467/430
f 432/457/432 444/470/444 443/481/443 431/468/431
f 433/469/433 445/482/445 456/483/456 444/470/444
f 434/471/434 446/484/446 445/485/445 433/472/433
f 435/473/435 447/486/447 446/484/446 434/471/434
f 436/474/436 448/487/448 447/486/447 435/473/435
f 437/475/437 449/488/449 448/487/448 436/474/436
f 438/476/438 450/489/450 449/488/449 437/475/437
f 439/477/439 451/490/451 450/489/450 438/476/438
f 440/478/440 452/491/452 451/490/451 439/477/439
f 441/479/441 453/492/453 452/491/452 440/478/440
f 442/480/442 454/493/454 453/492/453 441/479/441
f 443/481/443 455/494/455 454/493/454 442/480/442
f 444/470/444 456/483/456 455/494/455 443/481/443
f 445/482/445 457/495/457 468/496/468 456/483/456
f 446/484/446 458/497/458 457/498/457 445/485/445
f 447/486/447 459/499/459 458/497/458 446/484/446
f 448/487/448 460/500/460 459/499/459 447/486/447
f 449/488/449 461/501/461 460/500/460 448/487/448
f 450/489/450 462/502/462 461/501/461 449/488/449
f 451/490/451 463/503/463 462/502/462 450/489/450
f 452/491/452 464/504/464 463/503/463 451/490/451
f 453/492/453 465/505/465 464/504/464 452/491/452
f 454/493/454 466/506/466 465/505/465 453/492/453
f 455/494/455 467/507/467 466/506/466 454/493/454
f 456/483/456 468/496/468 467/507/467 455/494/455
f 457/495/457 469/508/469 480/509/480 468/496/468
f 458/497/458 470/510/470 469/511/469 457/498/457
f 459/499/459 471/512/471 470/510/470 458/497/458
f 460/500/460 472/513/472 471/512/471 459/499/459
f 461/501/461 473/514/473 472/513/472 460/500/460
f 462/502/462 474/515/474 473/514/473 461/501/461
f 463/503/463 475/516/475 474/515/474 462/502/462
f 464/504/464 476/517/476 475/516/475 463/503/463
f 465/505/465 477/518/477 476/517/476 464/504/464
f 466/506/466 478/519/478 477/518/477 465/505/465
f 467/507/467 479/520/479 478/519/478 466/506/466
f 468/496/468 480/509/480 479/520/479 467/507/467
f 469/508/469 481/521/481 492/522/492 480/509/480
f 470/510/470 482/523/482 481/524/481 469/511/469
f 471/512/471 483/525/483 482/523/482 470/510/470
f 472/513/472 484/526/484 483/525/483 471/512/471
f 473/514/473 485/527/485 484/526/484 472/513/472
f 474/515/474 486/528/486 485/527/485 473/514/473
f 475/516/475 487/529/487 486/528/486 474/515/474
f 476/517/476 488/530/488 487/529/487 475/516/475
f 477/518/477 489/531/489 488/530/488 476/517/476
f 478/519/478 490/532/490 489/531/489 477/518/477
f 479/520/479 491/533/491 490/532/490 478/519/478
f 480/509/480 492/522/492 491/533/491 479/520/479
f 481/521/481 493/534/493 504/535/504 492/522/492
f 482/523/482 494/536/494 493/537/493 481/524/481
f 483/525/483 495/538/495 494/536/494 482/523/482
f 484/526/484 496/539/496 495/538/495 483/525/483
f 485/527/485 497/540/497 496/539/496 484/526/484
f 486/528/486 498/541/498 497/540/497 485/527/485
f 487/529/487 499/542/499 498/541/498 486/528/486
f 488/530/488 500/543/500 499/542/499 487/529/487
f 489/531/489 501/544/501 500/543/500 488/530/488
f 490/532/490 502/545/502 501/544/501 489/531/489
f 491/533/491 503/546/503 502/545/502 490/532/490
f 492/522/492 504/535/504 503/546/503 491/533/491
f 493/534/493 505/547/505 516/548/516 504/535/504
f 494/536/494 506/549/506 505/550/505 493/537/493
f 495/538/495 507/551/507 506/549/506 494/536/494
f 496/539/496 508/552/508 507/551/507 495/538/495
f 497/540/497 509/553/509 508/552/508 496/539/496
f 498/541/498 510/554/510 509/553/509 497/540/497
f 499/542/499 511/555/511 510/554/510 498/541/498
f 500/543/500 512/556/512 511/555/511 499/542/499
f 501/544/501 513/557/513 512/556/512 500/543/500
f 502/545/502 514/558/514 513/557/513 501/544/501
f 503/546/503 515/559/515 514/558/514 502/545/502
f 504/535/504 516/548/516 515/559/515 503/546/503
f 505/547/505 517/560/517 528/561/528 516/548/516
f 506/549/506 518/562/518 517/563/517 505/550/505
f 507/551/507 519/564/519 518/562/518 506/549/506
f 508/552/508 520/565/520 519/564/519 507/551/507
f 509/553/509 521/566/521 520/565/520 508/552/508
f 510/554/510 522/567/522 521/566/521 509/553/509
f 511/555/511 523/568/523 522/567/522 510/554/510
f 512/556/512 524/569/524 523/568/523 511/555/511
f 513/557/513 525/570/525 524/569/524 512/556/512
f 514/558/514 526/571/526 525/570/525 513/557/513
f 515/559/515 527/572/527 526/571/526 514/558/514
f 516/548/516 528/561/528 527/572/527 515/559/515
f 517/560/517 529/573/529 540/574/540 528/561/528
f 518/562/518 530/575/530 529/576/529 517/563/517
f 519/564/519 531/577/531 530/575/530 518/562/518
f 520/565/520 532/578/532 531/577/531 519/564/519
f 521/566/521 533/579/533 532/578/532 520/565/520
f 522/567/522 534/580/534 533/579/533 521/566/521
f 523/568/523 535/581/535 534/580/534 522/567/522
f 524/569/524 536/582/536 535/581/535 523/568/523
f 525/570/525 537/583/537 536/582/536 524/569/524
f 526/571/526 538/584/538 537/583/537 525/570/525
f 527/572/527 539/585/539 538/584/538 526/571/526
f 528/561/528 540/574/540 539/585/539 527/572/527
f 529/573/529 541/586/541 552/587/552 540/574/540
f 530/575/530 542/588/542 541/589/541 529/576/529
f 531/577/531 543/590/543 542/588/542 530/575/530
f 532/578/532 544/591/544 543/590/543 531/577/531
f 533/579/533 545/592/545 544/591/544 532/578/532
f 534/580/534 546/593/546 545/592/545 533/579/533
f 535/581/535 547/594/547 546/593/546 534/580/534
f 536/582/536 548/595/548 547/594/547 535/581/535
f 537/583/537 549/596/549 548/595/548 536/582/536
f 538/584/538 550/597/550 549/596/549 537/583/537
f 539/585/539 551/598/551 550/597/550 538/584/538
f 540/574/540 552/587/552 551/598/551 539/585/539
f 541/586/541 553/599/553 564/600/564 552/587/552
f 542/588/542 554/601/554 553/602/553 541/589/541
f 543/590/543 555/603/555 554/601/554 542/588/542
f 544/591/544 556/604/556 555/603/555 543/590/543
f 545/592/545 557/605/557 556/604/556 544/591/544
f 546/593/546 558/606/558 557/605/557 545/592/545
f 547/594/547 559/607/559 558/606/558 546/593/546
f 548/595/548 560/608/560 559/607/559 547/594/547
f 549/596/549 561/609/561 560/608/560 548/595/548
f 550/597/550 562/610/562 561/609/561 549/596/549
f 551/598/551 563/611/563 562/610/562 550/597/550
f 552/587/552 564/600/564 563/611/563 551/598/551
f 553/599/553 565/612/565 576/613/576 564/600/564
f 554/601/554 566/614/566 565/615/565 553/602/553
f 555/603/555 567/616/567 566/614/566 554/601/554
f 556/604/556 568/617/568 567/616/567 555/603/555
f 557/605/557 569/618/569 568/617/568 556/604/556
f 558/606/558 570/619/570 569/618/569 557/605/557
f 559/607/559 571/620/571 570/619/570 558/606/558
f 560/608/560 572/621/572 571/620/571 559/607/559
f 561/609/561 573/622/573 572/621/572 560/608/560
f 562/610/562 574/623/574 573/622/573 561/609/561
f 563/611/563 575/624/575 574/623/574 562/610/562
f 564/600/564 576/613/576 575/624/575 563/611/563
f 565/612/565 577/625/577 588/626/588 576/613/576
f 566/614/566 578/627/578 577/628/577 565/615/565
f 567/616/567 579/629/579 578/627/578 566/614/566
f 568/617/568 580/630/580 579/629/579 567/616/567
f 569/618/569 581/631/581 580/630/580 568/617/568
f 570/619/570 582/632/582 581/631/581 569/618/569
f 571/620/571 583/633/583 582/632/582 570/619/570
f 572/621/572 584/634/584 583/633/583 571/620/571
f 573/622/573 585/635/585 584/634/584 572/621/572
f 574/623/574 586/636/586 585/635/585 573/622/573
f 575/624/575 587/637/587 586/636/586 574/623/574
f 576/613/576 588/626/588 587/637/587 575/624/575
f 577/625/577 589/638/589 600/639/600 588/626/588
f 578/627/578 590/640/590 589/641/589 577/628/577
f 579/629/579 591/642/591 590/640/590 578/627/578
f 580/630/580 592/643/592 591/642/591 579/629/579
f 581/631/581 593/644/593 592/643/592 580/630/580
f 582/632/582 594/645/594 593/644/593 581/631/581
f 583/633/583 595/646/595 594/645/594 582/632/582
f 584/634/584 596/647/596 595/646/595 583/633/583
f 585/635/585 597/648/597 596/647/596 584/634/584
f 586/636/586 598/649/598 597/648/597 585/635/585
f 587/637/587 599/650/599 598/649/598 586/636/586
f 588/626/588 600/639/600 599/650/599 587/637/587
f 589/638/589 601/651/601 612/652/612 600/639/600
f 590/640/590 602/653/602 601/654/601 589/641/589
f 591/642/591 603/655/603 602/653/602 590/640/590
f 592/643/592 604/656/604 603/655/603 591/642/591
f 593/644/593 605/657/605 604/656/604 592/643/592
f 594/645/594 606/658/606 605/657/605 593/644/593
f 595/646/595 607/659/607 606/658/606 594/645/594
f 596/647/596 608/660/608 607/659/607 595/646/595
f 597/648/597 609/661/609 608/660/608 596/647/596
f 598/649/598 610/662/610 609/661/609 597/648/597
f 599/650/599 611/663/611 610/662/610 598/649/598
f 600/639/600 612/652/612 611/663/611 599/650/599
f 601/651/601 613/664/613 624/665/624 612/652/612
f 602/653/602 614/666/614 613/667/613 601/654/601
f 603/655/603 615/668/615 614/666/614 602/653/602
f 604/656/604 616/669/616 615/668/615 603/655/603
f 605/657/605 617/670/617 616/669/616 604/656/604
f 606/658/606 618/671/618 617/670/617 605/657/605
f 607/659/607 619/672/619 618/671/618 606/658/606
f 608/660/608 620/673/620 619/672/619 607/659/607
f 609/661/609 621/674/621 620/673/620 608/660/608
f 610/662/610 622/675/622 621/674/621 609/661/609
f 611/663/611 623/676/623 622/675/622 610/662/610
f 612/652/612 624/665/624 623/676/623 611/663/611
f 613/664/613 625/677/625 636/678/636 624/665/624
f 614/666/614 626/679/626 625/680/625 613/667/613
f 615/668/615 627/681/627 626/679/626 614/666/614
f 616/669/616 628/682/628 627/681/627 615/668/615
f 617/670/617 629/683/629 628/682/628 616/669/616
f 618/671/618 630/684/630 629/683/629 617/670/617
f 619/672/619 631/685/631 630/684/630 618/671/618
f 620/673/620 632/686/632 631/685/631 619/672/619
f 621/674/621 633/687/633 632/686/632 620/673/620
f 622/675/622 634/688/634 633/687/633 621/674/621
f 623/676/623 635/689/635 634/688/634 622/675/622
f 624/665/624 636/678/636 635/689/635 623/676/623
f 625/677/625 637/690/637 648/691/648 636/678/636
f 626/679/626 638/692/638 637/693/637 625/680/625
f 627/681/627 639/694/639 638/692/638 626/679/626
f 628/682/628 640/695/640 639/694/639 627/681/627
f 629/683/629 641/696/641 640/695/640 628/682/628
f 630/684/630 642/697/642 641/696/641 629/683/629
f 631/685/631 643/698/643 642/697/642 630/684/630
f 632/686/632 644/699/644 643/698/643 631/685/631
f 633/687/633 645/700/645 644/699/644 632/686/632
f 634/688/634 646/701/646 645/700/645 633/687/633
f 635/689/635 647/702/647 646/701/646 634/688/634
f 636/678/636 648/691/648 647/702/647 635/689/635
f 637/690/637 649/703/649 660/704/660 648/691/648
f 638/692/638 650/705/650 649/706/649 637/693/637
f 639/694/639 651/707/651 650/705/650 638/692/638
f 640/695/640 652/708/652 651/707/651 639/694/639
f 641/696/641 653/709/653 652/708/652 640/695/640
f 642/697/642 654/710/654 653/709/653 641/696/641
f 643/698/643 655/711/655 654/710/654 642/697/642
f 644/699/644 656/712/656 655/711/655 643/698/643
f 645/700/645 657/713/657 656/712/656 644/699/644
f 646/701/646 658/714/658 657/713/657 645/700/645
f 647/702/647 659/715/659 658/714/658 646/701/646
f 648/691/648 660/704/660 659/715/659 647/702/647
f 649/703/649 661/716/661 672/717/672 660/704/660
f 650/705/650 662/718/662 661/719/661 649/706/649
f 651/707/651 663/720/663 662/718/662 650/705/650
f 652/708/652 664/721/664 663/720/663 651/707/651
f 653/709/653 665/722/665 664/721/664 652/708/652
f 654/710/654 666/723/666 665/722/665 653/709/653
f 655/711/655 667/724/667 666/723/666 654/710/654
f 656/712/656 668/725/668 667/724/667 655/711/655
f 657/713/657 669/726/669 668/725/668 656/712/656
f 658/714/658 670/727/670 669/726/669 657/713/657
f 659/715/659 671/728/671 670/727/670 658/714/658
f 660/704/660 672/717/672 671/728/671 659/715/659
f 661/716/661 673/729/673 684/730/684 672/717/672
f 662/718/662 674/731/674 673/732/673 661/719/661
f 663/720/663 675/733/675 674/731/674 662/718/662
f 664/721/664 676/734/676 675/733/675 663/720/663
f 665/722/665 677/735/677 676/734/676 664/721/664
f 666/723/666 678/736/678 677/735/677 665/722/665
f 667/724/667 679/737/679 678/736/678 666/723/666
f 668/725/668 680/738/680 679/737/679 667/724/667
f 669/726/669 681/739/681 680/738/680 668/725/668
f 670/727/670 682/740/682 681/739/681 669/726/669
f 671/728/671 683/741/683 682/740/682 670/727/670
f 672/717/672 684/730/684 683/741/683 671/728/671
